<?xml version="1.0" encoding="UTF-8" standalone="no"?>
<svg
   id="a"
   data-name="Layer 2"
   viewBox="0 0 609.99998 266.75838"
   version="1.1"
   sodipodi:docname="Toadstool Logo Scaled to 24&quot; wide.svg"
   width="610.09149"
   height="266.7984"
   inkscape:version="1.1.2 (0a00cf5339, 2022-02-04)"
   xmlns:inkscape="http://www.inkscape.org/namespaces/inkscape"
   xmlns:sodipodi="http://sodipodi.sourceforge.net/DTD/sodipodi-0.dtd"
   xmlns="http://www.w3.org/2000/svg"
   xmlns:svg="http://www.w3.org/2000/svg">
  <sodipodi:namedview
     id="namedview922"
     pagecolor="#ffffff"
     bordercolor="#666666"
     borderopacity="1.0"
     inkscape:pageshadow="2"
     inkscape:pageopacity="0.0"
     inkscape:pagecheckerboard="0"
     showgrid="false"
     width="657.39001px"
     viewbox-width="610"
     scale-x="0.92791"
     inkscape:zoom="1.5607174"
     inkscape:cx="304.98795"
     inkscape:cy="133.27205"
     inkscape:window-width="2484"
     inkscape:window-height="1413"
     inkscape:window-x="472"
     inkscape:window-y="938"
     inkscape:window-maximized="0"
     inkscape:current-layer="a"
     fit-margin-top="0"
     fit-margin-left="0"
     fit-margin-right="0"
     fit-margin-bottom="0" />
  <defs
     id="defs900">
    <style
       id="style898">
      .c {
        fill: #f2ae6b;
        stroke-width: 0px;
      }
    </style>
  </defs>
  <g
     id="b"
     data-name="toad3"
     transform="matrix(0.92791,0,0,0.92791,3.296188e-4,0.00208523)">
    <g
       id="g918">
      <path
         class="c"
         d="m 37.34,227.13 c 0.85,6.87 2.56,18.86 5.27,26.01 2.38,6.29 6.08,7.36 10.67,5.62 3.64,-1.38 6.04,-6.01 7.92,-9.7 1.15,-2.17 1.8,-3.91 2.95,-4.34 1.53,-0.58 2.98,0.36 3.47,1.66 0.49,1.3 0.39,3.32 -0.32,6.07 -2.4,9.83 -10.83,25.67 -24.42,30.83 -13.78,5.22 -23.24,-1.85 -27.6,-13.33 -5.26,-13.87 -3.44,-26.96 -7.55,-37.79 -1.07,-2.82 -5.58,0.88 -7.06,-3.03 -0.82,-2.17 -1.24,-6.72 0.87,-7.52 10.14,-3.85 15.93,-17.44 18.68,-30.38 0.87,-4.05 2.4,-6.36 4.12,-7.02 2.1,-0.8 3.83,0.28 4.73,2.67 1.81,4.77 2.33,14.24 3.73,17.92 1.07,2.82 2.6,3.97 7.57,2.08 1.53,-0.58 2.93,-0.37 3.58,1.37 1.64,4.33 0.69,8.17 -1.61,9.04 -4.78,1.81 -5.66,4.13 -5.02,9.84 z"
         id="path902" />
      <path
         class="c"
         d="m 125.41,207.83 c 7.33,24.9 0.93,48.78 -25.18,56.46 -17.27,5.09 -33.76,-2.38 -39,-20.17 -6.35,-21.57 3.39,-47.87 30.28,-55.79 16.49,-4.86 29.38,4.15 33.9,19.5 z m -20.15,9.8 c -6.87,-0.88 -8.9,-2.7 -9.95,-6.25 -1.51,-5.11 0.91,-8.48 0.46,-10.04 -0.26,-0.89 -0.79,-1.22 -1.77,-0.93 -0.79,0.23 -2.88,1.81 -4.64,5.23 -2.88,5.44 -3.47,13.58 0.27,26.26 2.95,10 7.79,14.86 14.86,12.78 7.26,-2.14 9.49,-11.97 7.19,-19.76 -1.11,-3.78 -3.27,-6.77 -6.41,-7.29 z"
         id="path904" />
      <path
         class="c"
         d="m 203.93,239.11 c -11.47,2.1 -18.06,-7.77 -18.67,-8.84 -0.32,0.53 -6.09,13.36 -22.19,16.31 -12.68,2.32 -25.22,-4.82 -28.43,-22.37 -4.12,-22.57 3.75,-47.81 32.53,-53.07 10.67,-1.95 15.49,1.65 18.71,1.06 5.03,-0.92 13.3,-6.91 17.93,-7.75 1.81,-0.33 3.19,0.36 3.64,2.87 1,5.47 -2.8,24.54 0.45,42.33 1.08,5.93 4.93,8.76 8.55,8.1 3.42,-0.62 4.7,-2.74 6.77,-6.19 1.12,-1.85 1.8,-2.68 3.01,-2.91 1.81,-0.33 3.15,1.31 3.4,2.68 0.46,2.51 -0.42,4.55 -1.89,7.88 -3.1,6.93 -11.14,17.59 -23.82,19.9 z m -31.24,-56.02 c -6.84,1.25 -10.18,22.83 -7.43,37.88 0.87,4.79 3.35,8.11 6.37,7.55 7.05,-1.29 8.06,-27.63 5.48,-41.76 -0.5,-2.74 -2,-4.11 -4.41,-3.67 v 0 z"
         id="path906" />
      <path
         class="c"
         d="m 298.51,201.96 c 0.36,6.02 2.81,9.35 6.49,9.13 3.47,-0.21 5,-2.16 7.47,-5.32 1.33,-1.71 2.11,-2.45 3.33,-2.52 1.84,-0.11 2.97,1.68 3.05,3.07 0.15,2.54 -0.96,4.47 -2.83,7.6 -3.92,6.5 -13.18,16.11 -26.05,16.88 -12.46,0.74 -16.62,-10.62 -16.62,-10.62 0,0 -9.93,12.2 -24.64,13.08 -14.3,0.85 -23.66,-8.34 -24.68,-25.46 -1.56,-26.14 14.18,-47.52 37.06,-48.88 7.15,-0.43 12.61,1.8 14.53,3.08 2.15,-15.45 6.61,-40.33 10.43,-55.42 -52.67,-17.06 -88.44,-39.31 -145.63,-35.9 -23.69,1.41 -33.57,18.02 -32.59,34.45 0.55,9.25 4.68,13.19 4.83,15.73 0.11,1.85 -0.83,3.3 -2.05,3.37 -9.8,0.58 -34.31,-15.14 -36.18,-46.37 -1.99,-33.32 21.82,-60.28 57.36,-62.4 53.31,-3.18 110.72,48.66 158.87,69.01 12.23,-53.19 36.31,-82.49 67.76,-84.37 26.55,-1.58 43.55,15.28 45.12,41.66 2.7,45.35 -31.96,69.01 -68.93,71.21 -5.11,0.3 -16.25,-0.89 -21.84,-1.95 -4.02,15.1 -15.51,69.88 -14.26,90.94 z m -31.75,-30.61 c -6.94,0.41 -12.87,21.43 -11.96,36.7 0.29,4.86 2.35,8.45 5.41,8.27 7.15,-0.43 11.34,-26.45 10.48,-40.79 -0.17,-2.78 -1.49,-4.32 -3.94,-4.18 z M 317.44,93.1 c 5.38,0.84 13.39,1.06 18.7,0.74 25.33,-1.51 36.06,-17.47 35.05,-34.36 -0.65,-10.87 -6.93,-16.54 -16.74,-15.95 -15.93,0.95 -28.53,16.56 -37.02,49.57 v 0 z"
         id="path908" />
      <path
         class="c"
         d="m 409.6,207.79 c -0.56,6.7 2.3,9.26 7.19,9.68 3.87,0.33 8.04,-2.81 11.33,-5.33 1.97,-1.46 3.31,-2.75 4.54,-2.64 1.63,0.14 2.53,1.61 2.42,2.99 -0.12,1.39 -1.09,3.17 -2.91,5.34 -6.41,7.83 -20.86,18.48 -35.34,17.26 -14.68,-1.24 -20.17,-11.7 -19.13,-23.94 1.25,-14.78 8.33,-25.81 9.31,-37.36 0.33,-3.93 -5.21,-3.93 -4.86,-8.09 0.19,-2.31 1.7,-3.11 3.86,-4.33 4.96,-2.84 10.4,-8.89 11.1,-17.21 0.33,-3.93 -1.11,-6.37 -4.57,-6.67 -7.14,-0.6 -15.6,7.29 -16.73,20.69 -0.53,6.24 0.35,10.5 -0.08,15.58 -0.53,6.24 -4.6,10.78 -10.31,10.3 -3.88,-0.33 -7.17,-2.7 -6.8,-7.08 0.29,-3.46 2.04,-4.71 2.21,-6.79 0.16,-1.85 -1.56,-3.39 -3.81,-3.58 -2.65,-0.22 -5.98,2.75 -6.35,7.14 -1.23,14.55 21.33,17.38 19.91,34.24 -1.26,15.01 -14.76,24.11 -32.71,22.6 -15.29,-1.29 -26.68,-9.92 -25.63,-22.39 0.62,-7.39 5.92,-11.83 11.43,-11.36 4.69,0.39 8.13,3.47 7.6,9.71 -0.41,4.85 0.77,7.97 4.44,8.28 2.24,0.19 4.07,-1.98 4.3,-4.75 1.05,-12.47 -18.72,-16.69 -17.26,-34.02 1.07,-12.7 14.98,-21.77 32.51,-20.29 2.45,0.21 7.28,1.31 9.87,2.23 1.83,-21.71 18.93,-37.02 36.47,-35.54 14.88,1.25 23.08,11.25 21.76,26.95 -0.21,2.54 -1.27,7.8 -1.51,10.57 -0.25,3 0.41,4.92 6.52,5.43 1.43,0.12 2.59,0.92 2.42,3 -0.21,2.54 -1.57,4.05 -4.71,4.72 -5.01,0.97 -8.1,3.5 -9.99,8.93 -2.2,6.56 -5.84,18.12 -6.48,25.74 h -0.01 z"
         id="path910" />
      <path
         class="c"
         d="m 504.57,208.68 c -5.59,25.35 -22.72,43.17 -49.3,37.31 -17.58,-3.88 -28.43,-18.37 -24.44,-36.48 4.84,-21.95 26.07,-40.29 53.45,-34.26 16.79,3.7 23.73,17.81 20.29,33.43 z m -22.38,-1.14 c -5.6,-4.08 -6.5,-6.65 -5.7,-10.27 1.15,-5.21 4.89,-6.99 5.24,-8.58 0.2,-0.91 -0.1,-1.45 -1.1,-1.67 -0.8,-0.18 -3.4,0.2 -6.59,2.34 -5.14,3.38 -9.59,10.23 -12.43,23.13 -2.25,10.19 -0.35,16.78 6.85,18.36 7.39,1.63 14.09,-5.91 15.83,-13.83 0.85,-3.85 0.4,-7.51 -2.1,-9.48 z"
         id="path912" />
      <path
         class="c"
         d="m 578.71,232.25 c -8.1,24.66 -26.93,40.68 -52.78,32.19 -17.11,-5.62 -26.45,-21.12 -20.66,-38.74 7.01,-21.36 29.97,-37.49 56.6,-28.74 16.33,5.36 21.83,20.1 16.84,35.29 z m -22.15,-3.37 c -5.16,-4.62 -5.8,-7.27 -4.64,-10.79 1.66,-5.06 5.57,-6.47 6.08,-8.01 0.29,-0.88 0.04,-1.45 -0.93,-1.77 -0.78,-0.25 -3.4,-0.14 -6.79,1.67 -5.46,2.84 -10.56,9.22 -14.69,21.77 -3.25,9.91 -2.02,16.66 4.98,18.95 7.19,2.36 14.61,-4.47 17.14,-12.18 1.23,-3.74 1.15,-7.43 -1.14,-9.64 z"
         id="path914" />
      <path
         class="c"
         d="m 606.76,275.08 c 2.26,0.95 3.94,0.65 5.99,0 1.77,-0.52 2.6,-0.92 3.55,-0.52 1.32,0.55 1.63,1.94 1.09,3.22 -0.72,1.71 -2.38,3.02 -4.5,4.39 -7.03,4.59 -16.43,7.44 -26.24,3.32 -12.64,-5.3 -16.62,-17.52 -11.96,-28.64 8.16,-19.45 34.16,-40.72 48.05,-73.85 2.96,-7.05 2.13,-11.42 -2.02,-13.16 -1.7,-0.71 -2.28,-1.96 -1.57,-3.67 1.88,-4.49 15.78,-6.95 26.54,-2.44 9.81,4.11 14.47,13.11 9.99,23.79 -7.53,17.96 -41,54.94 -49.61,75.46 -3.05,7.27 -1.95,11 0.7,12.1 v 0 z"
         id="path916" />
    </g>
  </g>
</svg>
