<?xml version="1.0" encoding="UTF-8" standalone="no"?>
<svg
   id="a"
   data-name="Layer 2"
   viewBox="0 0 224.15406 144.6952"
   version="1.1"
   sodipodi:docname="Toadstool Logo Scaled to 30&quot; wide - st.svg"
   inkscape:version="1.1.2 (0a00cf5339, 2022-02-04)"
   width="224.15407"
   height="144.69521"
   xmlns:inkscape="http://www.inkscape.org/namespaces/inkscape"
   xmlns:sodipodi="http://sodipodi.sourceforge.net/DTD/sodipodi-0.dtd"
   xmlns="http://www.w3.org/2000/svg"
   xmlns:svg="http://www.w3.org/2000/svg">
  <sodipodi:namedview
     id="namedview848"
     pagecolor="#ffffff"
     bordercolor="#666666"
     borderopacity="1.0"
     inkscape:pageshadow="2"
     inkscape:pageopacity="0.0"
     inkscape:pagecheckerboard="0"
     showgrid="false"
     inkscape:zoom="1.8145836"
     inkscape:cx="19.012626"
     inkscape:cy="112.97358"
     inkscape:window-width="2619"
     inkscape:window-height="1547"
     inkscape:window-x="518"
     inkscape:window-y="937"
     inkscape:window-maximized="0"
     inkscape:current-layer="layer1"
     fit-margin-top="0"
     fit-margin-left="0"
     fit-margin-right="0"
     fit-margin-bottom="0" />
  <defs
     id="defs826">
    <style
       id="style824">
      .c {
        fill: #f2ae6b;
        stroke-width: 0px;
      }
    </style>
    <marker
       id="CheckToolsAndOPMarker"
       orient="auto"
       refX="-4"
       refY="-1.687441"
       style="overflow:visible">
      <path
         d="m 4.588864,-1.687441 v 0 L 9.177728,0 c -0.73311,-0.996261 -0.728882,-2.359329 0,-3.374882"
         style="fill:#000044;fill-rule:evenodd;stroke:none"
         id="path1307" />
    </marker>
    <marker
       id="DrawCurveMarker"
       orient="auto"
       refX="-4"
       refY="-1.687441"
       style="overflow:visible">
      <path
         d="m 4.588864,-1.687441 v 0 L 9.177728,0 c -0.73311,-0.996261 -0.728882,-2.359329 0,-3.374882"
         style="fill:#000044;fill-rule:evenodd;stroke:none"
         id="path1310" />
    </marker>
    <marker
       id="DrawCurveMarker_r"
       orient="auto"
       refX="4"
       refY="-1.687441"
       style="overflow:visible">
      <path
         d="m -4.588864,-1.687441 v 0 L -9.177728,0 c 0.73311,-0.996261 0.728882,-2.359329 0,-3.374882"
         style="fill:#000044;fill-rule:evenodd;stroke:none"
         id="path1313" />
    </marker>
    <marker
       id="InOutPathMarker"
       orient="auto"
       refX="-4"
       refY="-1.687441"
       style="overflow:visible">
      <path
         d="m 4.588864,-1.687441 v 0 L 9.177728,0 c -0.73311,-0.996261 -0.728882,-2.359329 0,-3.374882"
         style="fill:#0072a7;fill-rule:evenodd;stroke:none"
         id="path1316" />
    </marker>
  </defs>
  <g
     inkscape:groupmode="layer"
     id="layer1"
     inkscape:label="Layer 1"
     style="display:inline"
     transform="translate(-309.14124,-118.17014)">
    <path
       class="c"
       d="m 422.146,217.2581 c -0.64954,7.77126 2.66774,10.74058 8.33961,11.22773 4.48877,0.38277 9.32551,-3.25929 13.14155,-6.18221 2.28498,-1.69344 3.83924,-3.1897 5.2659,-3.06211 1.89062,0.16238 2.93452,1.86742 2.80693,3.46807 -0.13918,1.61225 -1.26428,3.67685 -3.37528,6.19381 -7.43489,9.08194 -24.1953,21.43477 -40.99051,20.0197 -17.02718,-1.43826 -23.39498,-13.57071 -22.18869,-27.76776 1.44986,-17.14318 9.66188,-29.93676 10.79857,-43.33349 0.38277,-4.55837 -6.04302,-4.55837 -5.63706,-9.38351 0.22038,-2.67935 1.97181,-3.60726 4.47717,-5.02233 5.75306,-3.29408 12.06286,-10.31142 12.87478,-19.9617 0.38276,-4.55837 -1.28748,-7.3885 -5.3007,-7.73647 -8.28161,-0.69593 -18.09428,8.4556 -19.40496,23.99812 -0.61474,7.23772 0.40597,12.17885 -0.0928,18.07109 -0.61474,7.23771 -5.33549,12.50361 -11.95846,11.94687 -4.50038,-0.38277 -8.31641,-3.13171 -7.88726,-8.21202 0.33637,-4.01322 2.36618,-5.46309 2.56336,-7.87566 0.18558,-2.14579 -1.80943,-3.93202 -4.41918,-4.1524 -3.07371,-0.25518 -6.93614,3.18969 -7.3653,8.28161 -1.42667,16.8764 24.74045,20.15889 23.09341,39.71464 -1.46146,17.40994 -17.11998,27.96494 -37.94,26.21351 -17.73472,-1.49626 -30.94587,-11.50611 -29.72798,-25.96994 0.71913,-8.57159 6.86655,-13.7215 13.25754,-13.17635 5.43988,0.45236 9.42991,4.02482 8.81516,11.26253 -0.47555,5.62547 0.89312,9.24433 5.14991,9.60389 2.59816,0.22038 4.72076,-2.29658 4.98753,-5.50947 1.21789,-14.46383 -21.71314,-19.35857 -20.0197,-39.45946 1.24108,-14.73061 17.37515,-25.25081 37.70802,-23.53417 2.84173,0.24358 8.444,1.51946 11.44812,2.58655 2.1226,-25.18121 21.95672,-42.93912 42.30119,-41.22249 17.25916,1.44987 26.77026,13.04877 25.2392,31.25904 -0.24357,2.94612 -1.47306,9.04714 -1.75143,12.26004 -0.28997,3.47967 0.47555,5.70665 7.56248,6.2982 1.65865,0.13919 3.00412,1.0671 2.80694,3.47967 -0.24358,2.94612 -1.82103,4.69755 -5.46309,5.47468 -5.81104,1.12509 -9.3951,4.05961 -11.5873,10.35782 -2.55175,7.60888 -6.77375,21.0172 -7.51608,29.85557 h -0.0116 z"
       id="path836" />
    <path
       class="c"
       d="m 532.30075,218.2904 c -6.48378,29.40321 -26.3527,50.07245 -57.18258,43.2755 -20.39086,-4.50038 -32.97567,-21.30718 -28.34771,-42.31279 5.61387,-25.45959 30.23833,-46.73197 61.99612,-39.73783 19.47456,4.29159 27.52419,20.65764 23.53417,38.77512 z m -25.95834,-1.32228 c -6.49538,-4.73235 -7.53928,-7.71326 -6.61137,-11.91207 1.33387,-6.04302 5.67186,-8.10763 6.07782,-9.95185 0.23198,-1.0555 -0.11599,-1.68184 -1.27588,-1.93702 -0.92791,-0.20878 -3.94362,0.23198 -7.64367,2.71414 -5.96184,3.92043 -11.12335,11.86568 -14.41743,26.82826 -2.60976,11.81928 -0.40597,19.46295 7.94524,21.29558 8.57159,1.89062 16.34285,-6.85495 18.36106,-16.04128 0.98591,-4.46557 0.46396,-8.71077 -2.43577,-10.99576 z"
       id="path838" />
    <g
       gcodetools="Preview group"
       id="g2078" />
    <g
       gcodetools="Preview group"
       id="g2080" />
    <g
       gcodetools="Preview group"
       id="g2082" />
    <g
       gcodetools="Preview group"
       id="g2084" />
    <g
       gcodetools="Preview group"
       id="g2086" />
    <g
       gcodetools="Preview group"
       id="g2088" />
    <g
       gcodetools="Preview group"
       id="g2090" />
    <g
       gcodetools="Preview group"
       id="g2092" />
    <g
       gcodetools="Preview group"
       id="g2094" />
    <g
       gcodetools="Preview group"
       id="g2096" />
    <g
       gcodetools="Preview group"
       id="g2098" />
    <g
       gcodetools="Preview group"
       id="g2100" />
    <g
       gcodetools="Preview group"
       id="g2102" />
    <g
       gcodetools="Preview group"
       id="g10128" />
    <g
       gcodetools="Preview group"
       id="g10130" />
    <g
       gcodetools="Preview group"
       id="g10132" />
    <g
       gcodetools="Preview group"
       id="g10134" />
    <g
       gcodetools="Preview group"
       id="g10136" />
    <g
       gcodetools="Preview group"
       id="g10138" />
    <g
       gcodetools="Preview group"
       id="g10140" />
    <g
       gcodetools="Preview group"
       id="g10142" />
    <g
       gcodetools="Preview group"
       id="g10144" />
    <g
       gcodetools="Preview group"
       id="g10146" />
    <g
       gcodetools="Preview group"
       id="g10148" />
    <g
       gcodetools="Preview group"
       id="g10150" />
    <g
       gcodetools="Preview group"
       id="g10152" />
    <g
       gcodetools="Preview group"
       id="g20445" />
    <g
       gcodetools="Preview group"
       id="g20447" />
    <g
       gcodetools="Preview group"
       id="g20449" />
    <g
       gcodetools="Preview group"
       id="g20451" />
    <g
       gcodetools="Preview group"
       id="g20453" />
    <g
       gcodetools="Preview group"
       id="g20455" />
    <g
       gcodetools="Preview group"
       id="g20457" />
    <g
       gcodetools="Preview group"
       id="g20459" />
    <g
       gcodetools="Preview group"
       id="g20461" />
    <g
       gcodetools="Preview group"
       id="g20463" />
    <g
       gcodetools="Preview group"
       id="g20465" />
    <g
       gcodetools="Preview group"
       id="g20467" />
    <g
       gcodetools="Preview group"
       id="g20469" />
    <g
       gcodetools="Preview group"
       id="g28462" />
    <g
       gcodetools="Preview group"
       id="g28464" />
    <g
       gcodetools="Preview group"
       id="g28466" />
    <g
       gcodetools="Preview group"
       id="g28468" />
    <g
       gcodetools="Preview group"
       id="g28470" />
    <g
       gcodetools="Preview group"
       id="g28472" />
    <g
       gcodetools="Preview group"
       id="g28474" />
    <g
       gcodetools="Preview group"
       id="g28476" />
    <g
       gcodetools="Preview group"
       id="g28478" />
    <g
       gcodetools="Preview group"
       id="g28480" />
    <g
       gcodetools="Preview group"
       id="g28482" />
    <g
       gcodetools="Preview group"
       id="g28484" />
    <g
       gcodetools="Preview group"
       id="g28486" />
  </g>
  <g
     id="g2105"
     transform="translate(-309.14124,-118.17014)" />
  <g
     id="g10156"
     transform="translate(-309.14124,-118.17014)" />
  <g
     id="g20474"
     transform="translate(-309.14124,-118.17014)" />
  <g
     id="g28492"
     transform="translate(-309.14124,-118.17014)" />
</svg>
