<?xml version="1.0" encoding="UTF-8" standalone="no"?>
<svg
   id="a"
   data-name="Layer 2"
   viewBox="0 0 148.74481 117.23978"
   version="1.1"
   sodipodi:docname="Toadstool Logo Scaled to 30&quot; wide - to.svg"
   inkscape:version="1.1.2 (0a00cf5339, 2022-02-04)"
   width="148.74481"
   height="117.23978"
   xmlns:inkscape="http://www.inkscape.org/namespaces/inkscape"
   xmlns:sodipodi="http://sodipodi.sourceforge.net/DTD/sodipodi-0.dtd"
   xmlns="http://www.w3.org/2000/svg"
   xmlns:svg="http://www.w3.org/2000/svg">
  <sodipodi:namedview
     id="namedview848"
     pagecolor="#ffffff"
     bordercolor="#666666"
     borderopacity="1.0"
     inkscape:pageshadow="2"
     inkscape:pageopacity="0.0"
     inkscape:pagecheckerboard="0"
     showgrid="false"
     inkscape:zoom="1.8145836"
     inkscape:cx="381.07916"
     inkscape:cy="41.882887"
     inkscape:window-width="2619"
     inkscape:window-height="1547"
     inkscape:window-x="518"
     inkscape:window-y="937"
     inkscape:window-maximized="0"
     inkscape:current-layer="layer1"
     fit-margin-top="0"
     fit-margin-left="0"
     fit-margin-right="0"
     fit-margin-bottom="0" />
  <defs
     id="defs826">
    <style
       id="style824">
      .c {
        fill: #f2ae6b;
        stroke-width: 0px;
      }
    </style>
    <marker
       id="CheckToolsAndOPMarker"
       orient="auto"
       refX="-4"
       refY="-1.687441"
       style="overflow:visible">
      <path
         d="m 4.588864,-1.687441 v 0 L 9.177728,0 c -0.73311,-0.996261 -0.728882,-2.359329 0,-3.374882"
         style="fill:#000044;fill-rule:evenodd;stroke:none"
         id="path1307" />
    </marker>
    <marker
       id="DrawCurveMarker"
       orient="auto"
       refX="-4"
       refY="-1.687441"
       style="overflow:visible">
      <path
         d="m 4.588864,-1.687441 v 0 L 9.177728,0 c -0.73311,-0.996261 -0.728882,-2.359329 0,-3.374882"
         style="fill:#000044;fill-rule:evenodd;stroke:none"
         id="path1310" />
    </marker>
    <marker
       id="DrawCurveMarker_r"
       orient="auto"
       refX="4"
       refY="-1.687441"
       style="overflow:visible">
      <path
         d="m -4.588864,-1.687441 v 0 L -9.177728,0 c 0.73311,-0.996261 0.728882,-2.359329 0,-3.374882"
         style="fill:#000044;fill-rule:evenodd;stroke:none"
         id="path1313" />
    </marker>
    <marker
       id="InOutPathMarker"
       orient="auto"
       refX="-4"
       refY="-1.687441"
       style="overflow:visible">
      <path
         d="m 4.588864,-1.687441 v 0 L 9.177728,0 c -0.73311,-0.996261 -0.728882,-2.359329 0,-3.374882"
         style="fill:#0072a7;fill-rule:evenodd;stroke:none"
         id="path1316" />
    </marker>
  </defs>
  <g
     inkscape:groupmode="layer"
     id="layer1"
     inkscape:label="Layer 1"
     style="display:inline"
     transform="translate(52.945359,-189.60505)">
    <path
       class="c"
       d="m -9.6346544,239.69037 c 0.9859065,7.96844 2.9693184,21.87553 6.1126203,30.16874 2.7605382,7.29571 7.0521312,8.53679 12.3760263,6.51858 4.2219998,-1.60065 7.0057358,-6.97094 9.1863288,-11.25093 1.333874,-2.51696 2.087802,-4.53517 3.421676,-5.03393 1.774631,-0.67273 3.456472,0.41757 4.024818,1.92542 0.568346,1.50786 0.452357,3.85084 -0.371165,7.04053 -2.783736,11.40172 -12.561609,29.77438 -28.3245138,35.75941 -15.9832842,6.05463 -26.9558432,-2.14579 -32.0129642,-15.46133 -6.101021,-16.08767 -3.990021,-31.27063 -8.757169,-43.83224 -1.241083,-3.27089 -6.472186,1.0207 -8.188824,-3.51447 -0.951109,-2.51696 -1.438263,-7.79446 1.009105,-8.72237 11.761284,-4.46558 18.477047,-20.22848 21.666745,-35.23746 1.009104,-4.69756 2.783736,-7.3769 4.778747,-8.14243 2.435769,-0.92791 4.442378,0.32477 5.486279,3.09691 2.099401,5.53267 2.702544,16.51683 4.32639,20.78523 1.241082,3.27089 3.015714,4.60476 8.7803673,2.41257 1.7746317,-0.67274 3.3984777,-0.42916 4.1524062,1.58905 1.9022196,5.02232 0.8003241,9.4763 -1.8674229,10.4854 -5.5442742,2.0994 -6.5649776,4.79035 -5.8226478,11.41332 z"
       id="path828" />
    <path
       class="c"
       d="m 92.516858,217.30449 c 8.501992,28.88126 1.078698,56.57944 -29.20603,65.48739 -20.031301,5.90384 -39.157887,-2.76054 -45.23571,-23.39498 -7.365302,-25.01883 3.932027,-55.52393 35.121469,-64.71026 19.126586,-5.63707 34.077568,4.81354 39.320271,22.61785 z m -23.371784,11.36692 c -7.968444,-1.0207 -10.323021,-3.1317 -11.540905,-7.24931 -1.751434,-5.92704 1.0555,-9.83586 0.533549,-11.64529 -0.301571,-1.03231 -0.916313,-1.41507 -2.053005,-1.0787 -0.916313,0.26677 -3.340483,2.0994 -5.38189,6.06622 -3.340483,6.30981 -4.024818,15.75131 0.313171,30.45872 3.421675,11.5989 9.035543,17.23596 17.235965,14.82339 8.420801,-2.48217 11.007356,-13.88388 8.339609,-22.91943 -1.287478,-4.38438 -3.79284,-7.85245 -7.434895,-8.4556 z"
       id="path830" />
    <g
       gcodetools="Preview group"
       id="g2078" />
    <g
       gcodetools="Preview group"
       id="g2080" />
    <g
       gcodetools="Preview group"
       id="g2082" />
    <g
       gcodetools="Preview group"
       id="g2084" />
    <g
       gcodetools="Preview group"
       id="g2086" />
    <g
       gcodetools="Preview group"
       id="g2088" />
    <g
       gcodetools="Preview group"
       id="g2090" />
    <g
       gcodetools="Preview group"
       id="g2092" />
    <g
       gcodetools="Preview group"
       id="g2094" />
    <g
       gcodetools="Preview group"
       id="g2096" />
    <g
       gcodetools="Preview group"
       id="g2098" />
    <g
       gcodetools="Preview group"
       id="g2100" />
    <g
       gcodetools="Preview group"
       id="g2102" />
    <g
       gcodetools="Preview group"
       id="g10128" />
    <g
       gcodetools="Preview group"
       id="g10130" />
    <g
       gcodetools="Preview group"
       id="g10132" />
    <g
       gcodetools="Preview group"
       id="g10134" />
    <g
       gcodetools="Preview group"
       id="g10136" />
    <g
       gcodetools="Preview group"
       id="g10138" />
    <g
       gcodetools="Preview group"
       id="g10140" />
    <g
       gcodetools="Preview group"
       id="g10142" />
    <g
       gcodetools="Preview group"
       id="g10144" />
    <g
       gcodetools="Preview group"
       id="g10146" />
    <g
       gcodetools="Preview group"
       id="g10148" />
    <g
       gcodetools="Preview group"
       id="g10150" />
    <g
       gcodetools="Preview group"
       id="g10152" />
    <g
       gcodetools="Preview group"
       id="g20445" />
    <g
       gcodetools="Preview group"
       id="g20447" />
    <g
       gcodetools="Preview group"
       id="g20449" />
    <g
       gcodetools="Preview group"
       id="g20451" />
    <g
       gcodetools="Preview group"
       id="g20453" />
    <g
       gcodetools="Preview group"
       id="g20455" />
    <g
       gcodetools="Preview group"
       id="g20457" />
    <g
       gcodetools="Preview group"
       id="g20459" />
    <g
       gcodetools="Preview group"
       id="g20461" />
    <g
       gcodetools="Preview group"
       id="g20463" />
    <g
       gcodetools="Preview group"
       id="g20465" />
    <g
       gcodetools="Preview group"
       id="g20467" />
    <g
       gcodetools="Preview group"
       id="g20469" />
    <g
       gcodetools="Preview group"
       id="g28462" />
    <g
       gcodetools="Preview group"
       id="g28464" />
    <g
       gcodetools="Preview group"
       id="g28466" />
    <g
       gcodetools="Preview group"
       id="g28468" />
    <g
       gcodetools="Preview group"
       id="g28470" />
    <g
       gcodetools="Preview group"
       id="g28472" />
    <g
       gcodetools="Preview group"
       id="g28474" />
    <g
       gcodetools="Preview group"
       id="g28476" />
    <g
       gcodetools="Preview group"
       id="g28478" />
    <g
       gcodetools="Preview group"
       id="g28480" />
    <g
       gcodetools="Preview group"
       id="g28482" />
    <g
       gcodetools="Preview group"
       id="g28484" />
    <g
       gcodetools="Preview group"
       id="g28486" />
  </g>
  <g
     id="g2105"
     transform="translate(52.945359,-189.60505)" />
  <g
     id="g10156"
     transform="translate(52.945359,-189.60505)" />
  <g
     id="g20474"
     transform="translate(52.945359,-189.60505)" />
  <g
     id="g28492"
     transform="translate(52.945359,-189.60505)" />
</svg>
