<?xml version="1.0" encoding="UTF-8" standalone="no"?>
<svg
   id="a"
   data-name="Layer 2"
   viewBox="0 0 289.18643 117.05114"
   version="1.1"
   sodipodi:docname="Toadstool Logo Scaleable 2 to-ol.svg"
   inkscape:version="1.1.2 (0a00cf5339, 2022-02-04)"
   width="289.18643"
   height="117.05115"
   xmlns:inkscape="http://www.inkscape.org/namespaces/inkscape"
   xmlns:sodipodi="http://sodipodi.sourceforge.net/DTD/sodipodi-0.dtd"
   xmlns="http://www.w3.org/2000/svg"
   xmlns:svg="http://www.w3.org/2000/svg">
  <sodipodi:namedview
     id="namedview848"
     pagecolor="#ffffff"
     bordercolor="#666666"
     borderopacity="1.0"
     inkscape:pageshadow="2"
     inkscape:pageopacity="0.0"
     inkscape:pagecheckerboard="0"
     showgrid="false"
     inkscape:zoom="2.5662088"
     inkscape:cx="304.92453"
     inkscape:cy="90.016058"
     inkscape:window-width="2619"
     inkscape:window-height="1547"
     inkscape:window-x="335"
     inkscape:window-y="899"
     inkscape:window-maximized="0"
     inkscape:current-layer="layer1"
     fit-margin-top="0"
     fit-margin-left="0"
     fit-margin-right="0"
     fit-margin-bottom="0" />
  <defs
     id="defs826">
    <style
       id="style824">
      .c {
        fill: #f2ae6b;
        stroke-width: 0px;
      }
    </style>
    <marker
       id="CheckToolsAndOPMarker"
       orient="auto"
       refX="-4"
       refY="-1.687441"
       style="overflow:visible">
      <path
         d="m 4.588864,-1.687441 v 0 L 9.177728,0 c -0.73311,-0.996261 -0.728882,-2.359329 0,-3.374882"
         style="fill:#000044;fill-rule:evenodd;stroke:none"
         id="path1307" />
    </marker>
    <marker
       id="DrawCurveMarker"
       orient="auto"
       refX="-4"
       refY="-1.687441"
       style="overflow:visible">
      <path
         d="m 4.588864,-1.687441 v 0 L 9.177728,0 c -0.73311,-0.996261 -0.728882,-2.359329 0,-3.374882"
         style="fill:#000044;fill-rule:evenodd;stroke:none"
         id="path1310" />
    </marker>
    <marker
       id="DrawCurveMarker_r"
       orient="auto"
       refX="4"
       refY="-1.687441"
       style="overflow:visible">
      <path
         d="m -4.588864,-1.687441 v 0 L -9.177728,0 c 0.73311,-0.996261 0.728882,-2.359329 0,-3.374882"
         style="fill:#000044;fill-rule:evenodd;stroke:none"
         id="path1313" />
    </marker>
    <marker
       id="InOutPathMarker"
       orient="auto"
       refX="-4"
       refY="-1.687441"
       style="overflow:visible">
      <path
         d="m 4.588864,-1.687441 v 0 L 9.177728,0 c -0.73311,-0.996261 -0.728882,-2.359329 0,-3.374882"
         style="fill:#0072a7;fill-rule:evenodd;stroke:none"
         id="path1316" />
    </marker>
  </defs>
  <g
     inkscape:groupmode="layer"
     id="layer1"
     inkscape:label="Layer 1"
     style="display:inline"
     transform="translate(-23.304799,-159.25549)">
    <g
       id="b"
       data-name="toad3"
       transform="translate(-0.389971,-0.772997)">
      <path
         class="c"
         d="m 58.343334,221.11855 c 0.788725,6.37476 2.375455,17.50042 4.890096,24.13499 2.208431,5.83657 5.641705,6.82944 9.900821,5.21487 3.3776,-1.28052 5.604589,-5.57675 7.349063,-9.00075 1.067099,-2.01357 1.670242,-3.62813 2.737341,-4.02714 1.419705,-0.53818 2.765178,0.33405 3.219854,1.54034 0.454677,1.20628 0.361886,3.08067 -0.296931,5.63242 -2.226989,9.12138 -10.049287,23.81951 -22.659611,28.60753 -12.786628,4.8437 -21.564675,-1.71664 -25.610372,-12.36907 -4.880817,-12.87014 -3.192017,-25.0165 -7.005735,-35.06579 -0.992866,-2.61671 -5.177749,0.81656 -6.551059,-2.81157 -0.760888,-2.01357 -1.150611,-6.23557 0.807283,-6.9779 9.409028,-3.57246 14.781639,-16.18279 17.333397,-28.18997 0.807283,-3.75804 2.226988,-5.90152 3.822997,-6.51394 1.948615,-0.74233 3.553903,0.25981 4.389024,2.47752 1.679521,4.42614 2.162035,13.21347 3.461112,16.62819 0.992865,2.61671 2.412571,3.68381 7.024293,1.93005 1.419706,-0.53818 2.718783,-0.34332 3.321925,1.27124 1.521776,4.01786 0.64026,7.58105 -1.493938,8.38833 -4.435419,1.67952 -5.251982,3.83228 -4.658118,9.13065 z"
         id="path828" />
      <path
         class="c"
         d="m 140.06454,203.20985 c 6.8016,23.10501 0.86296,45.26355 -23.36482,52.38991 -16.02504,4.72307 -31.326309,-2.20843 -36.188568,-18.71598 -5.892241,-20.01506 3.145621,-44.41915 28.097178,-51.76821 15.30127,-4.50966 27.26205,3.85083 31.45621,18.09428 z m -18.69742,9.09354 c -6.37476,-0.81656 -8.25842,-2.50536 -9.23273,-5.79945 -1.40114,-4.74163 0.8444,-7.8687 0.42684,-9.31624 -0.24125,-0.82584 -0.73305,-1.13205 -1.6424,-0.86296 -0.73305,0.21342 -2.67239,1.67952 -4.30551,4.85298 -2.67239,5.04784 -3.21986,12.60105 0.25053,24.36697 2.73734,9.27912 7.22844,13.78878 13.78877,11.85872 6.73665,-1.98573 8.80589,-11.10711 6.67169,-18.33554 -1.02998,-3.50751 -3.03427,-6.28197 -5.94791,-6.76448 z"
         id="path830" />
      <path
         class="c"
         d="m 231.35982,215.54252 c -7.51609,22.88231 -24.98867,37.74746 -48.9752,29.86948 -15.87657,-5.21486 -24.54327,-19.5975 -19.17066,-35.94731 6.50467,-19.8202 27.80953,-34.78742 52.51982,-26.66819 15.1528,4.97361 20.25632,18.65103 15.62604,32.74602 z m -20.55325,-3.12707 c -4.78803,-4.28695 -5.38189,-6.74592 -4.30551,-10.01217 1.54033,-4.69523 5.16847,-6.00359 5.6417,-7.43257 0.2691,-0.81657 0.0371,-1.34548 -0.86296,-1.64241 -0.72377,-0.23198 -3.1549,-0.12991 -6.30052,1.54962 -5.0664,2.63527 -9.79875,8.55534 -13.63103,20.20064 -3.01571,9.19561 -1.87438,15.45901 4.62101,17.58393 6.67168,2.18987 13.55679,-4.14776 15.90441,-11.30197 1.14133,-3.47039 1.0671,-6.89438 -1.05782,-8.94507 z"
         id="path840" />
      <path
         class="c"
         d="m 265.90016,265.57278 c 2.09708,0.88152 3.65597,0.60315 5.55819,0 1.6424,-0.48251 2.41257,-0.85368 3.29409,-0.48251 1.22484,0.51035 1.51249,1.80015 1.01142,2.98788 -0.6681,1.58672 -2.20843,2.80229 -4.1756,4.07353 -6.52323,4.25912 -15.2456,6.90366 -24.34842,3.08067 -11.7288,-4.91794 -15.42189,-16.25702 -11.09782,-26.5754 7.57176,-18.04789 31.69747,-37.78458 44.58617,-68.5263 2.74662,-6.54178 1.97645,-10.59676 -1.87438,-12.21133 -1.57745,-0.65881 -2.11564,-1.8187 -1.45683,-3.40543 1.74448,-4.16633 14.64246,-6.44899 24.62679,-2.26411 9.10282,3.81372 13.42689,12.16493 9.26984,22.07503 -6.98718,16.6653 -38.04439,50.97948 -46.03371,70.02024 -2.83014,6.74592 -1.80943,10.20703 0.64953,11.22773 v 0 z"
         id="path842" />
    </g>
    <g
       gcodetools="Gcodetools tool definition"
       transform="translate(44.365376,319.91955)"
       id="g1029">
      <path
         gcodetools="Gcodetools tool background"
         style="fill-opacity:0.5;stroke:#444444"
         d="M -20,-20 H 380 V 155 H -20 Z"
         id="path947" />
      <g
         gcodetools="Gcodetools tool parameter"
         id="g957">
        <text
           x="0"
           y="0"
           style="font-style:normal;font-variant:normal;font-weight:normal;font-stretch:normal;font-size:20px;font-family:'DejaVu Sans';fill:#000000;fill-opacity:1;stroke:none"
           gcodetools="Gcodetools tool definition field name"
           xml:space="preserve"
           id="text951"><tspan
             x="0"
             y="0"
             sodipodi:role="line"
             id="tspan949">name</tspan></text>
        <text
           x="150"
           y="0"
           style="font-style:normal;font-variant:normal;font-weight:normal;font-stretch:normal;font-size:20px;font-family:'DejaVu Sans';fill:#000000;fill-opacity:1;stroke:none"
           gcodetools="Gcodetools tool definition field value"
           xml:space="preserve"
           id="text955"><tspan
             x="150"
             y="0"
             sodipodi:role="line"
             id="tspan953">Cylindrical cutter</tspan></text>
      </g>
      <g
         gcodetools="Gcodetools tool parameter"
         id="g967">
        <text
           x="0"
           y="20"
           style="font-style:normal;font-variant:normal;font-weight:normal;font-stretch:normal;font-size:10px;font-family:'DejaVu Sans';fill:#000000;fill-opacity:1;stroke:none"
           gcodetools="Gcodetools tool definition field name"
           xml:space="preserve"
           id="text961"><tspan
             x="0"
             y="20"
             sodipodi:role="line"
             id="tspan959">id</tspan></text>
        <text
           x="150"
           y="20"
           style="font-style:normal;font-variant:normal;font-weight:normal;font-stretch:normal;font-size:10px;font-family:'DejaVu Sans';fill:#000000;fill-opacity:1;stroke:none"
           gcodetools="Gcodetools tool definition field value"
           xml:space="preserve"
           id="text965"><tspan
             x="150"
             y="20"
             sodipodi:role="line"
             id="tspan963">Cylindrical cutter 0001</tspan></text>
      </g>
      <g
         gcodetools="Gcodetools tool parameter"
         id="g977">
        <text
           x="0"
           y="35"
           style="font-style:normal;font-variant:normal;font-weight:normal;font-stretch:normal;font-size:10px;font-family:'DejaVu Sans';fill:#000000;fill-opacity:1;stroke:none"
           gcodetools="Gcodetools tool definition field name"
           xml:space="preserve"
           id="text971"><tspan
             x="0"
             y="35"
             sodipodi:role="line"
             id="tspan969">diameter</tspan></text>
        <text
           x="150"
           y="35"
           style="font-style:normal;font-variant:normal;font-weight:normal;font-stretch:normal;font-size:10px;font-family:'DejaVu Sans';fill:#000000;fill-opacity:1;stroke:none"
           gcodetools="Gcodetools tool definition field value"
           xml:space="preserve"
           id="text975"><tspan
             x="150"
             y="35"
             sodipodi:role="line"
             id="tspan973">3.175</tspan></text>
      </g>
      <g
         gcodetools="Gcodetools tool parameter"
         id="g987">
        <text
           x="0"
           y="50"
           style="font-style:normal;font-variant:normal;font-weight:normal;font-stretch:normal;font-size:10px;font-family:'DejaVu Sans';fill:#000000;fill-opacity:1;stroke:none"
           gcodetools="Gcodetools tool definition field name"
           xml:space="preserve"
           id="text981"><tspan
             x="0"
             y="50"
             sodipodi:role="line"
             id="tspan979">feed</tspan></text>
        <text
           x="150"
           y="50"
           style="font-style:normal;font-variant:normal;font-weight:normal;font-stretch:normal;font-size:10px;font-family:'DejaVu Sans';fill:#000000;fill-opacity:1;stroke:none"
           gcodetools="Gcodetools tool definition field value"
           xml:space="preserve"
           id="text985"><tspan
             x="150"
             y="50"
             sodipodi:role="line"
             id="tspan983">200</tspan></text>
      </g>
      <g
         gcodetools="Gcodetools tool parameter"
         id="g997">
        <text
           x="0"
           y="65"
           style="font-style:normal;font-variant:normal;font-weight:normal;font-stretch:normal;font-size:10px;font-family:'DejaVu Sans';fill:#000000;fill-opacity:1;stroke:none"
           gcodetools="Gcodetools tool definition field name"
           xml:space="preserve"
           id="text991"><tspan
             x="0"
             y="65"
             sodipodi:role="line"
             id="tspan989">penetration angle</tspan></text>
        <text
           x="150"
           y="65"
           style="font-style:normal;font-variant:normal;font-weight:normal;font-stretch:normal;font-size:10px;font-family:'DejaVu Sans';fill:#000000;fill-opacity:1;stroke:none"
           gcodetools="Gcodetools tool definition field value"
           xml:space="preserve"
           id="text995"><tspan
             x="150"
             y="65"
             sodipodi:role="line"
             id="tspan993">90</tspan></text>
      </g>
      <g
         gcodetools="Gcodetools tool parameter"
         id="g1007">
        <text
           x="0"
           y="80"
           style="font-style:normal;font-variant:normal;font-weight:normal;font-stretch:normal;font-size:10px;font-family:'DejaVu Sans';fill:#000000;fill-opacity:1;stroke:none"
           gcodetools="Gcodetools tool definition field name"
           xml:space="preserve"
           id="text1001"><tspan
             x="0"
             y="80"
             sodipodi:role="line"
             id="tspan999">penetration feed</tspan></text>
        <text
           x="150"
           y="80"
           style="font-style:normal;font-variant:normal;font-weight:normal;font-stretch:normal;font-size:10px;font-family:'DejaVu Sans';fill:#000000;fill-opacity:1;stroke:none"
           gcodetools="Gcodetools tool definition field value"
           xml:space="preserve"
           id="text1005"><tspan
             x="150"
             y="80"
             sodipodi:role="line"
             id="tspan1003">100</tspan></text>
      </g>
      <g
         gcodetools="Gcodetools tool parameter"
         id="g1017">
        <text
           x="0"
           y="95"
           style="font-style:normal;font-variant:normal;font-weight:normal;font-stretch:normal;font-size:10px;font-family:'DejaVu Sans';fill:#000000;fill-opacity:1;stroke:none"
           gcodetools="Gcodetools tool definition field name"
           xml:space="preserve"
           id="text1011"><tspan
             x="0"
             y="95"
             sodipodi:role="line"
             id="tspan1009">depth step</tspan></text>
        <text
           x="150"
           y="95"
           style="font-style:normal;font-variant:normal;font-weight:normal;font-stretch:normal;font-size:10px;font-family:'DejaVu Sans';fill:#000000;fill-opacity:1;stroke:none"
           gcodetools="Gcodetools tool definition field value"
           xml:space="preserve"
           id="text1015"><tspan
             x="150"
             y="95"
             sodipodi:role="line"
             id="tspan1013">1</tspan></text>
      </g>
      <g
         gcodetools="Gcodetools tool parameter"
         id="g1027">
        <text
           x="0"
           y="110"
           style="font-style:normal;font-variant:normal;font-weight:normal;font-stretch:normal;font-size:10px;font-family:'DejaVu Sans';fill:#000000;fill-opacity:1;stroke:none"
           gcodetools="Gcodetools tool definition field name"
           xml:space="preserve"
           id="text1021"><tspan
             x="0"
             y="110"
             sodipodi:role="line"
             id="tspan1019">tool change gcode</tspan></text>
        <text
           x="150"
           y="110"
           style="font-style:normal;font-variant:normal;font-weight:normal;font-stretch:normal;font-size:10px;font-family:'DejaVu Sans';fill:#000000;fill-opacity:1;stroke:none"
           gcodetools="Gcodetools tool definition field value"
           xml:space="preserve"
           id="text1025"><tspan
             x="150"
             y="110"
             sodipodi:role="line"
             id="tspan1023">(None)</tspan></text>
      </g>
    </g>
    <g
       gcodetools="Preview group"
       id="g2078" />
    <g
       gcodetools="Preview group"
       id="g2080" />
    <g
       gcodetools="Preview group"
       id="g2082" />
    <g
       gcodetools="Preview group"
       id="g2084" />
    <g
       gcodetools="Preview group"
       id="g2086" />
    <g
       gcodetools="Preview group"
       id="g2088" />
    <g
       gcodetools="Preview group"
       id="g2090" />
    <g
       gcodetools="Preview group"
       id="g2092" />
    <g
       gcodetools="Preview group"
       id="g2094" />
    <g
       gcodetools="Preview group"
       id="g2096" />
    <g
       gcodetools="Preview group"
       id="g2098" />
    <g
       gcodetools="Preview group"
       id="g2100" />
    <g
       gcodetools="Preview group"
       id="g2102" />
    <g
       gcodetools="Preview group"
       id="g10128" />
    <g
       gcodetools="Preview group"
       id="g10130" />
    <g
       gcodetools="Preview group"
       id="g10132" />
    <g
       gcodetools="Preview group"
       id="g10134" />
    <g
       gcodetools="Preview group"
       id="g10136" />
    <g
       gcodetools="Preview group"
       id="g10138" />
    <g
       gcodetools="Preview group"
       id="g10140" />
    <g
       gcodetools="Preview group"
       id="g10142" />
    <g
       gcodetools="Preview group"
       id="g10144" />
    <g
       gcodetools="Preview group"
       id="g10146" />
    <g
       gcodetools="Preview group"
       id="g10148" />
    <g
       gcodetools="Preview group"
       id="g10150" />
    <g
       gcodetools="Preview group"
       id="g10152" />
    <g
       gcodetools="Preview group"
       id="g20445" />
    <g
       gcodetools="Preview group"
       id="g20447" />
    <g
       gcodetools="Preview group"
       id="g20449" />
    <g
       gcodetools="Preview group"
       id="g20451" />
    <g
       gcodetools="Preview group"
       id="g20453" />
    <g
       gcodetools="Preview group"
       id="g20455" />
    <g
       gcodetools="Preview group"
       id="g20457" />
    <g
       gcodetools="Preview group"
       id="g20459" />
    <g
       gcodetools="Preview group"
       id="g20461" />
    <g
       gcodetools="Preview group"
       id="g20463" />
    <g
       gcodetools="Preview group"
       id="g20465" />
    <g
       gcodetools="Preview group"
       id="g20467" />
    <g
       gcodetools="Preview group"
       id="g20469" />
    <g
       gcodetools="Preview group"
       id="g28462" />
    <g
       gcodetools="Preview group"
       id="g28464" />
    <g
       gcodetools="Preview group"
       id="g28466" />
    <g
       gcodetools="Preview group"
       id="g28468" />
    <g
       gcodetools="Preview group"
       id="g28470" />
    <g
       gcodetools="Preview group"
       id="g28472" />
    <g
       gcodetools="Preview group"
       id="g28474" />
    <g
       gcodetools="Preview group"
       id="g28476" />
    <g
       gcodetools="Preview group"
       id="g28478" />
    <g
       gcodetools="Preview group"
       id="g28480" />
    <g
       gcodetools="Preview group"
       id="g28482" />
    <g
       gcodetools="Preview group"
       id="g28484" />
    <g
       gcodetools="Preview group"
       id="g28486" />
  </g>
  <g
     id="g2105"
     transform="translate(-23.304799,-159.25549)" />
  <g
     id="g10156"
     transform="translate(-23.304799,-159.25549)" />
  <g
     id="g20474"
     transform="translate(-23.304799,-159.25549)" />
  <g
     id="g28492"
     transform="translate(-23.304799,-159.25549)" />
</svg>
