<?xml version="1.0" encoding="UTF-8" standalone="no"?>
<svg
   xmlns:dc="http://purl.org/dc/elements/1.1/"
   xmlns:cc="http://creativecommons.org/ns#"
   xmlns:rdf="http://www.w3.org/1999/02/22-rdf-syntax-ns#"
   xmlns:svg="http://www.w3.org/2000/svg"
   xmlns="http://www.w3.org/2000/svg"
   xmlns:sodipodi="http://sodipodi.sourceforge.net/DTD/sodipodi-0.dtd"
   xmlns:inkscape="http://www.inkscape.org/namespaces/inkscape"
   id="a"
   data-name="Layer 2"
   viewBox="0 0 399.99999 299.99998"
   version="1.1"
   sodipodi:docname="Toadstool Logo Scaled to 30 inches wide - toad-ol.B.svg"
   inkscape:version="0.92.4 (5da689c313, 2019-01-14)"
   width="400"
   height="300">
  <metadata
     id="metadata2610">
    <rdf:RDF>
      <cc:Work
         rdf:about="">
        <dc:format>image/svg+xml</dc:format>
        <dc:type
           rdf:resource="http://purl.org/dc/dcmitype/StillImage" />
        <dc:title></dc:title>
      </cc:Work>
    </rdf:RDF>
  </metadata>
  <sodipodi:namedview
     id="namedview848"
     pagecolor="#ffffff"
     bordercolor="#666666"
     borderopacity="1.0"
     inkscape:pageshadow="2"
     inkscape:pageopacity="0.0"
     inkscape:pagecheckerboard="0"
     showgrid="false"
     inkscape:zoom="1.2831044"
     inkscape:cx="109.41401"
     inkscape:cy="201.2437"
     inkscape:window-width="1920"
     inkscape:window-height="1017"
     inkscape:window-x="-8"
     inkscape:window-y="-8"
     inkscape:window-maximized="1"
     inkscape:current-layer="layer1"
     fit-margin-top="0"
     fit-margin-left="0"
     fit-margin-right="0"
     fit-margin-bottom="0"
     inkscape:lockguides="true" />
  <defs
     id="defs826">
    <style
       id="style824">
      .c {
        fill: #f2ae6b;
        stroke-width: 0px;
      }
    </style>
    <marker
       id="CheckToolsAndOPMarker"
       orient="auto"
       refX="-4"
       refY="-1.687441"
       style="overflow:visible">
      <path
         d="m 4.588864,-1.687441 v 0 L 9.177728,0 c -0.73311,-0.996261 -0.728882,-2.359329 0,-3.374882"
         style="fill:#000044;fill-rule:evenodd;stroke:none"
         id="path1307" />
    </marker>
    <marker
       id="DrawCurveMarker"
       orient="auto"
       refX="-4"
       refY="-1.687441"
       style="overflow:visible">
      <path
         d="m 4.588864,-1.687441 v 0 L 9.177728,0 c -0.73311,-0.996261 -0.728882,-2.359329 0,-3.374882"
         style="fill:#000044;fill-rule:evenodd;stroke:none"
         id="path1310" />
    </marker>
    <marker
       id="DrawCurveMarker_r"
       orient="auto"
       refX="4"
       refY="-1.687441"
       style="overflow:visible">
      <path
         d="m -4.588864,-1.687441 v 0 L -9.177728,0 c 0.73311,-0.996261 0.728882,-2.359329 0,-3.374882"
         style="fill:#000044;fill-rule:evenodd;stroke:none"
         id="path1313" />
    </marker>
    <marker
       id="InOutPathMarker"
       orient="auto"
       refX="-4"
       refY="-1.687441"
       style="overflow:visible">
      <path
         d="m 4.588864,-1.687441 v 0 L 9.177728,0 c -0.73311,-0.996261 -0.728882,-2.359329 0,-3.374882"
         style="fill:#0072a7;fill-rule:evenodd;stroke:none"
         id="path1316" />
    </marker>
  </defs>
  <g
     inkscape:groupmode="layer"
     id="layer1"
     inkscape:label="Layer 1"
     style="display:inline"
     transform="translate(52.9454, 23.7581)">
    <path
       style="fill:#f2ae6b;stroke-width:0px"
       inkscape:connector-curvature="0"
       id="path828"
       d="m -8.8842076,183.78194 c 0.985906,7.96844 2.969318,21.87553 6.1126199,30.16874 2.76053806,7.29571 7.0521311,8.53679 12.3760261,6.51858 4.2219986,-1.60065 7.0057346,-6.97094 9.1863276,-11.25093 1.333869,-2.51696 2.087799,-4.53517 3.421679,-5.03393 1.77463,-0.67273 3.45647,0.41757 4.02481,1.92542 0.56835,1.50786 0.45236,3.85084 -0.37116,7.04053 -2.78374,11.40172 -12.561609,29.77438 -28.3245127,35.75941 -15.9832853,6.05463 -26.9558443,-2.14579 -32.0129653,-15.46133 -6.101021,-16.08767 -3.990021,-31.27063 -8.757169,-43.83224 -1.241083,-3.27089 -6.472186,1.0207 -8.188824,-3.51447 -0.951109,-2.51696 -1.438263,-7.79446 1.009105,-8.72237 11.761284,-4.46558 18.477047,-20.22848 21.666745,-35.23746 1.009104,-4.69756 2.783736,-7.3769 4.778747,-8.14243 2.435769,-0.92791 4.442378,0.32477 5.486279,3.09691 2.099401,5.53267 2.702544,16.51683 4.32639,20.78523 1.241082,3.27089 3.015715,4.60476 8.7803684,2.41257 1.774632,-0.67274 3.3984779,-0.42916 4.1524069,1.58905 1.90221908,5.02232 0.80032405,9.4763 -1.8674229,10.4854 -5.544275,2.0994 -6.5649778,4.79035 -5.822648,11.41332 z"
       class="c" />
    <path
       style="fill:#f2ae6b;stroke-width:0px"
       inkscape:connector-curvature="0"
       id="path830"
       d="m 85.474785,113.31523 c 8.50199,28.88126 1.07869,56.57944 -29.20603,65.48739 -20.0313,5.90384 -39.15789,-2.76054 -45.235714,-23.39498 -7.3653017,-25.01883 3.932028,-55.523921 35.121474,-64.710255 19.12658,-5.63707 34.07756,4.81354 39.32027,22.617845 z m -23.37179,11.36692 c -7.96844,-1.0207 -10.32302,-3.1317 -11.5409,-7.24931 -1.75144,-5.92704 1.0555,-9.83586 0.53355,-11.64529 -0.30157,-1.03231 -0.91632,-1.41507 -2.05301,-1.0787 -0.91631,0.26677 -3.34048,2.0994 -5.38189,6.06622 -3.34048,6.30981 -4.02482,15.75131 0.31317,30.45872 3.42168,11.5989 9.03555,17.23596 17.23597,14.82339 8.4208,-2.48217 11.00735,-13.88388 8.33961,-22.91943 -1.28748,-4.38438 -3.79284,-7.85245 -7.4349,-8.4556 z"
       class="c" />
    <path
       style="fill:#f2ae6b;stroke-width:0px"
       inkscape:connector-curvature="0"
       d="m 295.84973,-10.646247 c -1.83649,-0.05003 -3.71789,-0.01884 -5.64258,0.0957 C 253.72861,-8.3699522 225.79886,25.614285 211.6134,87.308828 155.7647,63.705076 89.175667,3.5754559 27.341925,7.2639058 -13.880566,9.7228724 -41.49946,40.995281 -39.191279,79.642816 c 2.168994,36.223354 30.5979228,54.455924 41.9648413,53.783194 1.4150699,-0.0812 2.5064959,-1.7624 2.3789059,-3.9082 -0.17398,-2.94612 -4.96363194,-7.51712 -5.60156198,-18.2461 C -1.5857938,92.214728 9.8738874,72.950137 37.35169,71.31469 c 66.3341,-3.955224 107.82265,21.850948 168.91406,41.63866 -4.43078,17.50274 -9.60389,46.36095 -12.09766,64.28125 -2.22698,-1.48466 -8.5603,-4.07101 -16.85352,-3.57226 -26.53828,1.57745 -44.79575,26.37578 -42.98632,56.69531 0.0535,0.89847 0.14941,1.7566 0.24218,2.61719 -0.36522,0.47326 -0.74151,1.02038 -1.17968,1.74414 -2.40097,4.00162 -3.88669,6.46056 -7.85352,7.17969 -4.1988,0.76553 -8.66333,-2.51834 -9.91602,-9.39649 -3.76964,-20.63444 0.63841,-42.75305 -0.52148,-49.09765 -0.52195,-2.91133 -2.12326,-3.71089 -4.22266,-3.32813 -5.37029,0.97431 -14.962623,7.92118 -20.796863,8.98828 -3.73485,0.68434 -9.32514,-3.4903 -21.70117,-1.22851 -33.381633,6.10102 -42.511169,35.37596 -37.732425,61.55468 3.72325,20.35607 18.269152,28.63822 32.976565,25.94727 18.67422,-3.42168 25.36712,-18.30322 25.73828,-18.91797 0.70754,1.24109 8.35035,12.68968 21.654293,10.25391 h -0.0117 c 13.67081,-2.4905 22.68595,-13.34468 26.77734,-21.31836 4.60488,10.08103 13.44662,15.23027 25.17383,14.5332 a 37.714054,37.714054 0 0 0 16.23242,-4.77344 l -1.54492,0.45508 c 8.6016,-4.50242 13.89258,-10.85351 13.89258,-10.85351 0,0 4.82511,13.17667 19.27734,12.31836 12.64573,-0.75659 22.2381,-8.86159 27.6543,-15.90821 -1.46231,-3.0888 -2.1411,-6.54133 -1.82422,-10.30468 0.0918,-1.09391 0.27343,-2.13165 0.53125,-3.10938 -0.0976,0.1225 -0.16067,0.15859 -0.26367,0.29102 -2.86493,3.66525 -4.63925,5.92635 -8.66407,6.16992 -4.26839,0.25518 -7.11173,-3.60731 -7.52929,-10.58985 -1.44987,-24.42729 11.87825,-87.96611 16.54101,-105.48047 6.48378,1.22949 19.40499,2.60968 25.33203,2.26172 42.88113,-2.55176 83.08289,-29.994672 79.95118,-82.595691 -1.70723,-28.6855322 -19.1441,-47.6655424 -46.69143,-48.416016 z m -10.24805,50.46875 c 11.37852,-0.684335 18.66209,5.891996 19.41602,18.5 1.17149,19.590541 -11.27233,38.104025 -40.65235,39.855465 -6.15901,0.37116 -15.45119,0.11494 -21.6914,-0.85937 h -0.0117 c 9.84744,-38.28797 24.46239,-56.394201 42.93943,-57.496095 z M 183.88684,188.08031 c 2.83617,-0.15826 4.36552,1.62643 4.5625,4.84765 0.9975,16.63282 -3.86304,46.81375 -12.15625,47.3125 -3.54926,0.20878 -5.93707,-3.95473 -6.27344,-9.59179 -1.05533,-17.70879 5.81916,-42.0855 13.86719,-42.56836 z M 75.791147,201.60179 c 2.21359,0.006 3.60974,1.57073 4.11718,4.35156 2.99252,16.38925 1.81981,46.94124 -6.35742,48.4375 -3.50286,0.64954 -6.37761,-3.20194 -7.38672,-8.75781 -3.18969,-17.45635 0.68354,-42.48763 8.61719,-43.9375 h 0.0117 c 0.34942,-0.0638 0.68182,-0.0946 0.99805,-0.0937 z"
       class="c"
       id="path832" />
    <path
       style="fill:#f2ae6b;stroke-width:0px"
       inkscape:connector-curvature="0"
       id="path840"
       d="m 176.04538,161.02523 c -22.43784,20.07327 -50.64318,25.2449 -71.68563,1.72517 -13.927604,-15.56812 -14.320433,-36.55446 1.71421,-50.89577 19.42914,-17.390582 51.84685,-20.277536 73.52201,3.95572 13.29488,14.85459 10.27121,32.85054 -3.55059,45.21488 z M 155.75025,144.7943 c -2.50384,-7.63327 -1.60986,-10.66635 1.59676,-13.52944 4.60198,-4.12003 9.34727,-3.26878 10.75268,-4.51993 0.80166,-0.71577 0.8811,-1.43332 0.0923,-2.31731 -0.63852,-0.70348 -3.33409,-2.11244 -7.78903,-2.26031 -7.13158,-0.31375 -15.95455,3.13721 -27.38142,13.34844 -9.01186,8.06972 -11.69097,15.56339 -5.98758,21.9233 5.85364,6.54041 17.26801,3.9829 24.28076,-2.29449 3.40452,-3.04347 5.46416,-6.79646 4.44555,-10.34446 z"
       class="c" />
    <path
       style="fill:#f2ae6b;stroke-width:0px"
       inkscape:connector-curvature="0"
       id="path842"
       d="m 284.06283,253.48466 c 2.62135,1.10189 4.56997,0.75392 6.94774,0 2.05301,-0.60315 3.01571,-1.0671 4.11761,-0.60315 1.53105,0.63794 1.89062,2.25019 1.26428,3.73485 -0.83512,1.98341 -2.76054,3.50287 -5.2195,5.09192 -8.15403,5.32389 -19.057,8.62958 -30.43552,3.85083 -14.66101,-6.14742 -19.27737,-20.32127 -13.87228,-33.21925 9.4647,-22.55986 39.62184,-47.23072 55.73271,-85.65788 3.43328,-8.17722 2.47057,-13.24594 -2.34298,-15.26415 -1.97181,-0.82352 -2.64455,-2.27338 -1.82102,-4.25679 2.18059,-5.20791 18.30306,-8.06124 30.78348,-2.83014 11.37852,4.76715 16.78361,15.20616 11.5873,27.59379 -8.73397,20.83162 -47.55549,63.72435 -57.54214,87.5253 -3.53767,8.4324 -2.26179,12.75879 0.81192,14.03467 v 0 z"
       class="c" />
    <g
       gcodetools="Preview group"
       id="g2078" />
    <g
       gcodetools="Preview group"
       id="g2080" />
    <g
       gcodetools="Preview group"
       id="g2082" />
    <g
       gcodetools="Preview group"
       id="g2084" />
    <g
       gcodetools="Preview group"
       id="g2086" />
    <g
       gcodetools="Preview group"
       id="g2088" />
    <g
       gcodetools="Preview group"
       id="g2090" />
    <g
       gcodetools="Preview group"
       id="g2092" />
    <g
       gcodetools="Preview group"
       id="g2094" />
    <g
       gcodetools="Preview group"
       id="g2096" />
    <g
       gcodetools="Preview group"
       id="g2098" />
    <g
       gcodetools="Preview group"
       id="g2100" />
    <g
       gcodetools="Preview group"
       id="g2102" />
    <g
       gcodetools="Preview group"
       id="g10128" />
    <g
       gcodetools="Preview group"
       id="g10130" />
    <g
       gcodetools="Preview group"
       id="g10132" />
    <g
       gcodetools="Preview group"
       id="g10134" />
    <g
       gcodetools="Preview group"
       id="g10136" />
    <g
       gcodetools="Preview group"
       id="g10138" />
    <g
       gcodetools="Preview group"
       id="g10140" />
    <g
       gcodetools="Preview group"
       id="g10142" />
    <g
       gcodetools="Preview group"
       id="g10144" />
    <g
       gcodetools="Preview group"
       id="g10146" />
    <g
       gcodetools="Preview group"
       id="g10148" />
    <g
       gcodetools="Preview group"
       id="g10150" />
    <g
       gcodetools="Preview group"
       id="g10152" />
    <g
       gcodetools="Preview group"
       id="g20445" />
    <g
       gcodetools="Preview group"
       id="g20447" />
    <g
       gcodetools="Preview group"
       id="g20449" />
    <g
       gcodetools="Preview group"
       id="g20451" />
    <g
       gcodetools="Preview group"
       id="g20453" />
    <g
       gcodetools="Preview group"
       id="g20455" />
    <g
       gcodetools="Preview group"
       id="g20457" />
    <g
       gcodetools="Preview group"
       id="g20459" />
    <g
       gcodetools="Preview group"
       id="g20461" />
    <g
       gcodetools="Preview group"
       id="g20463" />
    <g
       gcodetools="Preview group"
       id="g20465" />
    <g
       gcodetools="Preview group"
       id="g20467" />
    <g
       gcodetools="Preview group"
       id="g20469" />
    <g
       gcodetools="Preview group"
       id="g28462" />
    <g
       gcodetools="Preview group"
       id="g28464" />
    <g
       gcodetools="Preview group"
       id="g28466" />
    <g
       gcodetools="Preview group"
       id="g28468" />
    <g
       gcodetools="Preview group"
       id="g28470" />
    <g
       gcodetools="Preview group"
       id="g28472" />
    <g
       gcodetools="Preview group"
       id="g28474" />
    <g
       gcodetools="Preview group"
       id="g28476" />
    <g
       gcodetools="Preview group"
       id="g28478" />
    <g
       gcodetools="Preview group"
       id="g28480" />
    <g
       gcodetools="Preview group"
       id="g28482" />
    <g
       gcodetools="Preview group"
       id="g28484" />
    <g
       gcodetools="Preview group"
       id="g28486" />
    <g
       id="g1766" />
    <g
       gcodetools="Preview group"
       id="g2298" />
    <g
       gcodetools="Preview group"
       id="g2300" />
    <g
       gcodetools="Preview group"
       id="g2302" />
    <g
       gcodetools="Preview group"
       id="g2304" />
    <g
       gcodetools="Preview group"
       id="g2306" />
    <g
       gcodetools="Preview group"
       id="g2308" />
    <g
       gcodetools="Preview group"
       id="g2310" />
    <g
       gcodetools="Preview group"
       id="g2312" />
    <g
       gcodetools="Preview group"
       id="g2314" />
    <g
       gcodetools="Preview group"
       id="g2316" />
    <g
       gcodetools="Preview group"
       id="g10204" />
    <g
       gcodetools="Preview group"
       id="g10206" />
    <g
       gcodetools="Preview group"
       id="g10208" />
    <g
       gcodetools="Preview group"
       id="g10210" />
    <g
       gcodetools="Preview group"
       id="g10212" />
    <g
       gcodetools="Preview group"
       id="g10214" />
    <g
       gcodetools="Preview group"
       id="g10216" />
    <g
       gcodetools="Preview group"
       id="g10218" />
    <g
       gcodetools="Preview group"
       id="g10220" />
    <g
       gcodetools="Preview group"
       id="g10222" />
    <g
       id="g18771" />
    <g
       gcodetools="Preview group"
       id="g19303" />
    <g
       gcodetools="Preview group"
       id="g19305" />
    <g
       gcodetools="Preview group"
       id="g19307" />
    <g
       gcodetools="Preview group"
       id="g19309" />
    <g
       gcodetools="Preview group"
       id="g19311" />
    <g
       gcodetools="Preview group"
       id="g19313" />
    <g
       gcodetools="Preview group"
       id="g19315" />
    <g
       gcodetools="Preview group"
       id="g19317" />
    <g
       gcodetools="Preview group"
       id="g19319" />
    <g
       gcodetools="Preview group"
       id="g19321" />
    <g
       gcodetools="Preview group"
       id="g28526" />
    <g
       gcodetools="Preview group"
       id="g28528" />
    <g
       gcodetools="Preview group"
       id="g28530" />
    <g
       gcodetools="Preview group"
       id="g28532" />
    <g
       gcodetools="Preview group"
       id="g28534" />
    <g
       gcodetools="Preview group"
       id="g28536" />
    <g
       gcodetools="Preview group"
       id="g28538" />
    <g
       gcodetools="Preview group"
       id="g28540" />
    <g
       gcodetools="Preview group"
       id="g28542" />
    <g
       gcodetools="Preview group"
       id="g28544" />
    <g
       id="g7847" />
  </g>
  <g
     id="g2105"
     transform="translate(52.945359,23.758053)" />
  <g
     id="g10156"
     transform="translate(52.945359,23.758053)" />
  <g
     id="g20474"
     transform="translate(52.945359,23.758053)" />
  <g
     id="g28492"
     transform="translate(52.945359,23.758053)" />
  <g
     id="g10229" />
  <g
     id="g28552" />
  <g
     id="g30425" />
  <g
     id="g13791" />
  <g
     id="g21556" />
</svg>
