<?xml version="1.0" encoding="UTF-8" standalone="no"?>
<svg
   id="a"
   data-name="Layer 2"
   viewBox="0 0 400.03527 229.29871"
   version="1.1"
   sodipodi:docname="Toadstool Logo Scaleable 2 adsto.svg"
   inkscape:version="1.1.2 (0a00cf5339, 2022-02-04)"
   width="400.03528"
   height="229.29872"
   xmlns:inkscape="http://www.inkscape.org/namespaces/inkscape"
   xmlns:sodipodi="http://sodipodi.sourceforge.net/DTD/sodipodi-0.dtd"
   xmlns="http://www.w3.org/2000/svg"
   xmlns:svg="http://www.w3.org/2000/svg">
  <sodipodi:namedview
     id="namedview848"
     pagecolor="#ffffff"
     bordercolor="#666666"
     borderopacity="1.0"
     inkscape:pageshadow="2"
     inkscape:pageopacity="0.0"
     inkscape:pagecheckerboard="0"
     showgrid="false"
     inkscape:zoom="2.5662088"
     inkscape:cx="235.95118"
     inkscape:cy="222.11755"
     inkscape:window-width="2619"
     inkscape:window-height="1547"
     inkscape:window-x="335"
     inkscape:window-y="899"
     inkscape:window-maximized="0"
     inkscape:current-layer="layer1"
     fit-margin-top="0"
     fit-margin-left="0"
     fit-margin-right="0"
     fit-margin-bottom="0" />
  <defs
     id="defs826">
    <style
       id="style824">
      .c {
        fill: #f2ae6b;
        stroke-width: 0px;
      }
    </style>
    <marker
       id="CheckToolsAndOPMarker"
       orient="auto"
       refX="-4"
       refY="-1.687441"
       style="overflow:visible">
      <path
         d="m 4.588864,-1.687441 v 0 L 9.177728,0 c -0.73311,-0.996261 -0.728882,-2.359329 0,-3.374882"
         style="fill:#000044;fill-rule:evenodd;stroke:none"
         id="path1307" />
    </marker>
    <marker
       id="DrawCurveMarker"
       orient="auto"
       refX="-4"
       refY="-1.687441"
       style="overflow:visible">
      <path
         d="m 4.588864,-1.687441 v 0 L 9.177728,0 c -0.73311,-0.996261 -0.728882,-2.359329 0,-3.374882"
         style="fill:#000044;fill-rule:evenodd;stroke:none"
         id="path1310" />
    </marker>
    <marker
       id="DrawCurveMarker_r"
       orient="auto"
       refX="4"
       refY="-1.687441"
       style="overflow:visible">
      <path
         d="m -4.588864,-1.687441 v 0 L -9.177728,0 c 0.73311,-0.996261 0.728882,-2.359329 0,-3.374882"
         style="fill:#000044;fill-rule:evenodd;stroke:none"
         id="path1313" />
    </marker>
    <marker
       id="InOutPathMarker"
       orient="auto"
       refX="-4"
       refY="-1.687441"
       style="overflow:visible">
      <path
         d="m 4.588864,-1.687441 v 0 L 9.177728,0 c -0.73311,-0.996261 -0.728882,-2.359329 0,-3.374882"
         style="fill:#0072a7;fill-rule:evenodd;stroke:none"
         id="path1316" />
    </marker>
  </defs>
  <g
     inkscape:groupmode="layer"
     id="layer1"
     inkscape:label="Layer 1"
     style="display:inline"
     transform="translate(-92.262038,-9.5868178)">
    <g
       id="b"
       data-name="toad3"
       transform="translate(-0.389971,-0.772997)">
      <g
         id="g844"
         transform="matrix(0.927912,0,0,0.927912,23.6951,10.3619)">
        <path
           class="c"
           d="m 203.93,239.11 c -11.47,2.1 -18.06,-7.77 -18.67,-8.84 -0.32,0.53 -6.09,13.36 -22.19,16.31 -12.68,2.32 -25.22,-4.82 -28.43,-22.37 -4.12,-22.57 3.75,-47.81 32.53,-53.07 10.67,-1.95 15.49,1.65 18.71,1.06 5.03,-0.92 13.3,-6.91 17.93,-7.75 1.81,-0.33 3.19,0.36 3.64,2.87 1,5.47 -2.8,24.54 0.45,42.33 1.08,5.93 4.93,8.76 8.55,8.1 3.42,-0.62 4.7,-2.74 6.77,-6.19 1.12,-1.85 1.8,-2.68 3.01,-2.91 1.81,-0.33 3.15,1.31 3.4,2.68 0.46,2.51 -0.42,4.55 -1.89,7.88 -3.1,6.93 -11.14,17.59 -23.82,19.9 z m -31.24,-56.02 c -6.84,1.25 -10.18,22.83 -7.43,37.88 0.87,4.79 3.35,8.11 6.37,7.55 7.05,-1.29 8.06,-27.63 5.48,-41.76 -0.5,-2.74 -2,-4.11 -4.41,-3.67 v 0 z"
           id="path832" />
        <path
           class="c"
           d="m 298.51,201.96 c 0.36,6.02 2.81,9.35 6.49,9.13 3.47,-0.21 5,-2.16 7.47,-5.32 1.33,-1.71 2.11,-2.45 3.33,-2.52 1.84,-0.11 2.97,1.68 3.05,3.07 0.15,2.54 -0.96,4.47 -2.83,7.6 -3.92,6.5 -13.18,16.11 -26.05,16.88 -12.46,0.74 -16.62,-10.62 -16.62,-10.62 0,0 -9.93,12.2 -24.64,13.08 -14.3,0.85 -23.66,-8.34 -24.68,-25.46 -1.56,-26.14 14.18,-47.52 37.06,-48.88 7.15,-0.43 12.61,1.8 14.53,3.08 2.15,-15.45 6.61,-40.33 10.43,-55.42 -52.67,-17.06 -88.44,-39.31 -145.63,-35.9 -23.69,1.41 -33.57,18.02 -32.59,34.45 0.55,9.25 4.68,13.19 4.83,15.73 0.11,1.85 -0.83,3.3 -2.05,3.37 -9.8,0.58 -34.31,-15.14 -36.18,-46.37 -1.99,-33.32 21.82,-60.28 57.36,-62.4 53.31,-3.18 110.72,48.66 158.87,69.01 12.23,-53.19 36.31,-82.49 67.76,-84.37 26.55,-1.58 43.55,15.28 45.12,41.66 2.7,45.35 -31.96,69.01 -68.93,71.21 -5.11,0.3 -16.25,-0.89 -21.84,-1.95 -4.02,15.1 -15.51,69.88 -14.26,90.94 z m -31.75,-30.61 c -6.94,0.41 -12.87,21.43 -11.96,36.7 0.29,4.86 2.35,8.45 5.41,8.27 7.15,-0.43 11.34,-26.45 10.48,-40.79 -0.17,-2.78 -1.49,-4.32 -3.94,-4.18 z M 317.44,93.1 c 5.38,0.84 13.39,1.06 18.7,0.74 25.33,-1.51 36.06,-17.47 35.05,-34.36 -0.65,-10.87 -6.93,-16.54 -16.74,-15.95 -15.93,0.95 -28.53,16.56 -37.02,49.57 v 0 z"
           id="path834" />
        <path
           class="c"
           d="m 409.6,207.79 c -0.56,6.7 2.3,9.26 7.19,9.68 3.87,0.33 8.04,-2.81 11.33,-5.33 1.97,-1.46 3.31,-2.75 4.54,-2.64 1.63,0.14 2.53,1.61 2.42,2.99 -0.12,1.39 -1.09,3.17 -2.91,5.34 -6.41,7.83 -20.86,18.48 -35.34,17.26 -14.68,-1.24 -20.17,-11.7 -19.13,-23.94 1.25,-14.78 8.33,-25.81 9.31,-37.36 0.33,-3.93 -5.21,-3.93 -4.86,-8.09 0.19,-2.31 1.7,-3.11 3.86,-4.33 4.96,-2.84 10.4,-8.89 11.1,-17.21 0.33,-3.93 -1.11,-6.37 -4.57,-6.67 -7.14,-0.6 -15.6,7.29 -16.73,20.69 -0.53,6.24 0.35,10.5 -0.08,15.58 -0.53,6.24 -4.6,10.78 -10.31,10.3 -3.88,-0.33 -7.17,-2.7 -6.8,-7.08 0.29,-3.46 2.04,-4.71 2.21,-6.79 0.16,-1.85 -1.56,-3.39 -3.81,-3.58 -2.65,-0.22 -5.98,2.75 -6.35,7.14 -1.23,14.55 21.33,17.38 19.91,34.24 -1.26,15.01 -14.76,24.11 -32.71,22.6 -15.29,-1.29 -26.68,-9.92 -25.63,-22.39 0.62,-7.39 5.92,-11.83 11.43,-11.36 4.69,0.39 8.13,3.47 7.6,9.71 -0.41,4.85 0.77,7.97 4.44,8.28 2.24,0.19 4.07,-1.98 4.3,-4.75 1.05,-12.47 -18.72,-16.69 -17.26,-34.02 1.07,-12.7 14.98,-21.77 32.51,-20.29 2.45,0.21 7.28,1.31 9.87,2.23 1.83,-21.71 18.93,-37.02 36.47,-35.54 14.88,1.25 23.08,11.25 21.76,26.95 -0.21,2.54 -1.27,7.8 -1.51,10.57 -0.25,3 0.41,4.92 6.52,5.43 1.43,0.12 2.59,0.92 2.42,3 -0.21,2.54 -1.57,4.05 -4.71,4.72 -5.01,0.97 -8.1,3.5 -9.99,8.93 -2.2,6.56 -5.84,18.12 -6.48,25.74 h -0.01 z"
           id="path836" />
        <path
           class="c"
           d="m 504.57,208.68 c -5.59,25.35 -22.72,43.17 -49.3,37.31 -17.58,-3.88 -28.43,-18.37 -24.44,-36.48 4.84,-21.95 26.07,-40.29 53.45,-34.26 16.79,3.7 23.73,17.81 20.29,33.43 z m -22.38,-1.14 c -5.6,-4.08 -6.5,-6.65 -5.7,-10.27 1.15,-5.21 4.89,-6.99 5.24,-8.58 0.2,-0.91 -0.1,-1.45 -1.1,-1.67 -0.8,-0.18 -3.4,0.2 -6.59,2.34 -5.14,3.38 -9.59,10.23 -12.43,23.13 -2.25,10.19 -0.35,16.78 6.85,18.36 7.39,1.63 14.09,-5.91 15.83,-13.83 0.85,-3.85 0.4,-7.51 -2.1,-9.48 z"
           id="path838" />
      </g>
    </g>
    <g
       gcodetools="Gcodetools tool definition"
       transform="translate(112.54804,272.69288)"
       id="g1029">
      <path
         gcodetools="Gcodetools tool background"
         style="fill-opacity:0.5;stroke:#444444"
         d="M -20,-20 H 380 V 155 H -20 Z"
         id="path947" />
      <g
         gcodetools="Gcodetools tool parameter"
         id="g957">
        <text
           x="0"
           y="0"
           style="font-style:normal;font-variant:normal;font-weight:normal;font-stretch:normal;font-size:20px;font-family:'DejaVu Sans';fill:#000000;fill-opacity:1;stroke:none"
           gcodetools="Gcodetools tool definition field name"
           xml:space="preserve"
           id="text951"><tspan
             x="0"
             y="0"
             sodipodi:role="line"
             id="tspan949">name</tspan></text>
        <text
           x="150"
           y="0"
           style="font-style:normal;font-variant:normal;font-weight:normal;font-stretch:normal;font-size:20px;font-family:'DejaVu Sans';fill:#000000;fill-opacity:1;stroke:none"
           gcodetools="Gcodetools tool definition field value"
           xml:space="preserve"
           id="text955"><tspan
             x="150"
             y="0"
             sodipodi:role="line"
             id="tspan953">Cylindrical cutter</tspan></text>
      </g>
      <g
         gcodetools="Gcodetools tool parameter"
         id="g967">
        <text
           x="0"
           y="20"
           style="font-style:normal;font-variant:normal;font-weight:normal;font-stretch:normal;font-size:10px;font-family:'DejaVu Sans';fill:#000000;fill-opacity:1;stroke:none"
           gcodetools="Gcodetools tool definition field name"
           xml:space="preserve"
           id="text961"><tspan
             x="0"
             y="20"
             sodipodi:role="line"
             id="tspan959">id</tspan></text>
        <text
           x="150"
           y="20"
           style="font-style:normal;font-variant:normal;font-weight:normal;font-stretch:normal;font-size:10px;font-family:'DejaVu Sans';fill:#000000;fill-opacity:1;stroke:none"
           gcodetools="Gcodetools tool definition field value"
           xml:space="preserve"
           id="text965"><tspan
             x="150"
             y="20"
             sodipodi:role="line"
             id="tspan963">Cylindrical cutter 0001</tspan></text>
      </g>
      <g
         gcodetools="Gcodetools tool parameter"
         id="g977">
        <text
           x="0"
           y="35"
           style="font-style:normal;font-variant:normal;font-weight:normal;font-stretch:normal;font-size:10px;font-family:'DejaVu Sans';fill:#000000;fill-opacity:1;stroke:none"
           gcodetools="Gcodetools tool definition field name"
           xml:space="preserve"
           id="text971"><tspan
             x="0"
             y="35"
             sodipodi:role="line"
             id="tspan969">diameter</tspan></text>
        <text
           x="150"
           y="35"
           style="font-style:normal;font-variant:normal;font-weight:normal;font-stretch:normal;font-size:10px;font-family:'DejaVu Sans';fill:#000000;fill-opacity:1;stroke:none"
           gcodetools="Gcodetools tool definition field value"
           xml:space="preserve"
           id="text975"><tspan
             x="150"
             y="35"
             sodipodi:role="line"
             id="tspan973">3.175</tspan></text>
      </g>
      <g
         gcodetools="Gcodetools tool parameter"
         id="g987">
        <text
           x="0"
           y="50"
           style="font-style:normal;font-variant:normal;font-weight:normal;font-stretch:normal;font-size:10px;font-family:'DejaVu Sans';fill:#000000;fill-opacity:1;stroke:none"
           gcodetools="Gcodetools tool definition field name"
           xml:space="preserve"
           id="text981"><tspan
             x="0"
             y="50"
             sodipodi:role="line"
             id="tspan979">feed</tspan></text>
        <text
           x="150"
           y="50"
           style="font-style:normal;font-variant:normal;font-weight:normal;font-stretch:normal;font-size:10px;font-family:'DejaVu Sans';fill:#000000;fill-opacity:1;stroke:none"
           gcodetools="Gcodetools tool definition field value"
           xml:space="preserve"
           id="text985"><tspan
             x="150"
             y="50"
             sodipodi:role="line"
             id="tspan983">200</tspan></text>
      </g>
      <g
         gcodetools="Gcodetools tool parameter"
         id="g997">
        <text
           x="0"
           y="65"
           style="font-style:normal;font-variant:normal;font-weight:normal;font-stretch:normal;font-size:10px;font-family:'DejaVu Sans';fill:#000000;fill-opacity:1;stroke:none"
           gcodetools="Gcodetools tool definition field name"
           xml:space="preserve"
           id="text991"><tspan
             x="0"
             y="65"
             sodipodi:role="line"
             id="tspan989">penetration angle</tspan></text>
        <text
           x="150"
           y="65"
           style="font-style:normal;font-variant:normal;font-weight:normal;font-stretch:normal;font-size:10px;font-family:'DejaVu Sans';fill:#000000;fill-opacity:1;stroke:none"
           gcodetools="Gcodetools tool definition field value"
           xml:space="preserve"
           id="text995"><tspan
             x="150"
             y="65"
             sodipodi:role="line"
             id="tspan993">90</tspan></text>
      </g>
      <g
         gcodetools="Gcodetools tool parameter"
         id="g1007">
        <text
           x="0"
           y="80"
           style="font-style:normal;font-variant:normal;font-weight:normal;font-stretch:normal;font-size:10px;font-family:'DejaVu Sans';fill:#000000;fill-opacity:1;stroke:none"
           gcodetools="Gcodetools tool definition field name"
           xml:space="preserve"
           id="text1001"><tspan
             x="0"
             y="80"
             sodipodi:role="line"
             id="tspan999">penetration feed</tspan></text>
        <text
           x="150"
           y="80"
           style="font-style:normal;font-variant:normal;font-weight:normal;font-stretch:normal;font-size:10px;font-family:'DejaVu Sans';fill:#000000;fill-opacity:1;stroke:none"
           gcodetools="Gcodetools tool definition field value"
           xml:space="preserve"
           id="text1005"><tspan
             x="150"
             y="80"
             sodipodi:role="line"
             id="tspan1003">100</tspan></text>
      </g>
      <g
         gcodetools="Gcodetools tool parameter"
         id="g1017">
        <text
           x="0"
           y="95"
           style="font-style:normal;font-variant:normal;font-weight:normal;font-stretch:normal;font-size:10px;font-family:'DejaVu Sans';fill:#000000;fill-opacity:1;stroke:none"
           gcodetools="Gcodetools tool definition field name"
           xml:space="preserve"
           id="text1011"><tspan
             x="0"
             y="95"
             sodipodi:role="line"
             id="tspan1009">depth step</tspan></text>
        <text
           x="150"
           y="95"
           style="font-style:normal;font-variant:normal;font-weight:normal;font-stretch:normal;font-size:10px;font-family:'DejaVu Sans';fill:#000000;fill-opacity:1;stroke:none"
           gcodetools="Gcodetools tool definition field value"
           xml:space="preserve"
           id="text1015"><tspan
             x="150"
             y="95"
             sodipodi:role="line"
             id="tspan1013">1</tspan></text>
      </g>
      <g
         gcodetools="Gcodetools tool parameter"
         id="g1027">
        <text
           x="0"
           y="110"
           style="font-style:normal;font-variant:normal;font-weight:normal;font-stretch:normal;font-size:10px;font-family:'DejaVu Sans';fill:#000000;fill-opacity:1;stroke:none"
           gcodetools="Gcodetools tool definition field name"
           xml:space="preserve"
           id="text1021"><tspan
             x="0"
             y="110"
             sodipodi:role="line"
             id="tspan1019">tool change gcode</tspan></text>
        <text
           x="150"
           y="110"
           style="font-style:normal;font-variant:normal;font-weight:normal;font-stretch:normal;font-size:10px;font-family:'DejaVu Sans';fill:#000000;fill-opacity:1;stroke:none"
           gcodetools="Gcodetools tool definition field value"
           xml:space="preserve"
           id="text1025"><tspan
             x="150"
             y="110"
             sodipodi:role="line"
             id="tspan1023">(None)</tspan></text>
      </g>
    </g>
    <g
       gcodetools="Preview group"
       id="g2078" />
    <g
       gcodetools="Preview group"
       id="g2080" />
    <g
       gcodetools="Preview group"
       id="g2082" />
    <g
       gcodetools="Preview group"
       id="g2084" />
    <g
       gcodetools="Preview group"
       id="g2086" />
    <g
       gcodetools="Preview group"
       id="g2088" />
    <g
       gcodetools="Preview group"
       id="g2090" />
    <g
       gcodetools="Preview group"
       id="g2092" />
    <g
       gcodetools="Preview group"
       id="g2094" />
    <g
       gcodetools="Preview group"
       id="g2096" />
    <g
       gcodetools="Preview group"
       id="g2098" />
    <g
       gcodetools="Preview group"
       id="g2100" />
    <g
       gcodetools="Preview group"
       id="g2102" />
    <g
       gcodetools="Preview group"
       id="g10128" />
    <g
       gcodetools="Preview group"
       id="g10130" />
    <g
       gcodetools="Preview group"
       id="g10132" />
    <g
       gcodetools="Preview group"
       id="g10134" />
    <g
       gcodetools="Preview group"
       id="g10136" />
    <g
       gcodetools="Preview group"
       id="g10138" />
    <g
       gcodetools="Preview group"
       id="g10140" />
    <g
       gcodetools="Preview group"
       id="g10142" />
    <g
       gcodetools="Preview group"
       id="g10144" />
    <g
       gcodetools="Preview group"
       id="g10146" />
    <g
       gcodetools="Preview group"
       id="g10148" />
    <g
       gcodetools="Preview group"
       id="g10150" />
    <g
       gcodetools="Preview group"
       id="g10152" />
    <g
       gcodetools="Preview group"
       id="g20445" />
    <g
       gcodetools="Preview group"
       id="g20447" />
    <g
       gcodetools="Preview group"
       id="g20449" />
    <g
       gcodetools="Preview group"
       id="g20451" />
    <g
       gcodetools="Preview group"
       id="g20453" />
    <g
       gcodetools="Preview group"
       id="g20455" />
    <g
       gcodetools="Preview group"
       id="g20457" />
    <g
       gcodetools="Preview group"
       id="g20459" />
    <g
       gcodetools="Preview group"
       id="g20461" />
    <g
       gcodetools="Preview group"
       id="g20463" />
    <g
       gcodetools="Preview group"
       id="g20465" />
    <g
       gcodetools="Preview group"
       id="g20467" />
    <g
       gcodetools="Preview group"
       id="g20469" />
    <g
       gcodetools="Preview group"
       id="g28462" />
    <g
       gcodetools="Preview group"
       id="g28464" />
    <g
       gcodetools="Preview group"
       id="g28466" />
    <g
       gcodetools="Preview group"
       id="g28468" />
    <g
       gcodetools="Preview group"
       id="g28470" />
    <g
       gcodetools="Preview group"
       id="g28472" />
    <g
       gcodetools="Preview group"
       id="g28474" />
    <g
       gcodetools="Preview group"
       id="g28476" />
    <g
       gcodetools="Preview group"
       id="g28478" />
    <g
       gcodetools="Preview group"
       id="g28480" />
    <g
       gcodetools="Preview group"
       id="g28482" />
    <g
       gcodetools="Preview group"
       id="g28484" />
    <g
       gcodetools="Preview group"
       id="g28486" />
  </g>
  <g
     id="g2105"
     transform="translate(-92.262038,-9.5868178)" />
  <g
     id="g10156"
     transform="translate(-92.262038,-9.5868178)" />
  <g
     id="g20474"
     transform="translate(-92.262038,-9.5868178)" />
  <g
     id="g28492"
     transform="translate(-92.262038,-9.5868178)" />
</svg>
