<?xml version="1.0" encoding="UTF-8" standalone="no"?>
<svg
   id="a"
   data-name="Layer 2"
   viewBox="0 0 178.43548 146.31393"
   version="1.1"
   sodipodi:docname="Toadstool Logo Scaled to 30&quot; wide - ol.svg"
   inkscape:version="1.1.2 (0a00cf5339, 2022-02-04)"
   width="178.43549"
   height="146.31393"
   xmlns:inkscape="http://www.inkscape.org/namespaces/inkscape"
   xmlns:sodipodi="http://sodipodi.sourceforge.net/DTD/sodipodi-0.dtd"
   xmlns="http://www.w3.org/2000/svg"
   xmlns:svg="http://www.w3.org/2000/svg">
  <sodipodi:namedview
     id="namedview848"
     pagecolor="#ffffff"
     bordercolor="#666666"
     borderopacity="1.0"
     inkscape:pageshadow="2"
     inkscape:pageopacity="0.0"
     inkscape:pagecheckerboard="0"
     showgrid="false"
     inkscape:zoom="1.8145836"
     inkscape:cx="-203.07689"
     inkscape:cy="67.784146"
     inkscape:window-width="2619"
     inkscape:window-height="1547"
     inkscape:window-x="518"
     inkscape:window-y="937"
     inkscape:window-maximized="0"
     inkscape:current-layer="layer1"
     fit-margin-top="0"
     fit-margin-left="0"
     fit-margin-right="0"
     fit-margin-bottom="0" />
  <defs
     id="defs826">
    <style
       id="style824">
      .c {
        fill: #f2ae6b;
        stroke-width: 0px;
      }
    </style>
    <marker
       id="CheckToolsAndOPMarker"
       orient="auto"
       refX="-4"
       refY="-1.687441"
       style="overflow:visible">
      <path
         d="m 4.588864,-1.687441 v 0 L 9.177728,0 c -0.73311,-0.996261 -0.728882,-2.359329 0,-3.374882"
         style="fill:#000044;fill-rule:evenodd;stroke:none"
         id="path1307" />
    </marker>
    <marker
       id="DrawCurveMarker"
       orient="auto"
       refX="-4"
       refY="-1.687441"
       style="overflow:visible">
      <path
         d="m 4.588864,-1.687441 v 0 L 9.177728,0 c -0.73311,-0.996261 -0.728882,-2.359329 0,-3.374882"
         style="fill:#000044;fill-rule:evenodd;stroke:none"
         id="path1310" />
    </marker>
    <marker
       id="DrawCurveMarker_r"
       orient="auto"
       refX="4"
       refY="-1.687441"
       style="overflow:visible">
      <path
         d="m -4.588864,-1.687441 v 0 L -9.177728,0 c 0.73311,-0.996261 0.728882,-2.359329 0,-3.374882"
         style="fill:#000044;fill-rule:evenodd;stroke:none"
         id="path1313" />
    </marker>
    <marker
       id="InOutPathMarker"
       orient="auto"
       refX="-4"
       refY="-1.687441"
       style="overflow:visible">
      <path
         d="m 4.588864,-1.687441 v 0 L 9.177728,0 c -0.73311,-0.996261 -0.728882,-2.359329 0,-3.374882"
         style="fill:#0072a7;fill-rule:evenodd;stroke:none"
         id="path1316" />
    </marker>
  </defs>
  <g
     inkscape:groupmode="layer"
     id="layer1"
     inkscape:label="Layer 1"
     style="display:inline"
     transform="translate(-531.12075,-163.37672)">
    <path
       class="c"
       d="m 618.29499,245.62901 c -9.3951,28.60288 -31.23583,47.18432 -61.21899,37.33686 -19.84572,-6.51859 -30.67909,-24.49688 -23.96333,-44.93414 8.13083,-24.77525 34.76191,-43.48428 65.64978,-33.33524 18.941,6.21701 25.3204,23.31379 19.53254,40.93252 z m -25.69156,-3.90883 c -5.98503,-5.35869 -6.72736,-8.4324 -5.38189,-12.51522 1.92542,-5.86904 6.46059,-7.50448 7.05213,-9.29071 0.33637,-1.02071 0.0464,-1.68185 -1.07869,-2.05301 -0.90472,-0.28997 -3.94363,-0.16238 -7.87566,1.93702 -6.333,3.29408 -12.24844,10.69418 -17.03878,25.2508 -3.76964,11.49451 -2.34298,19.32377 5.77625,21.97992 8.33961,2.73734 16.94599,-5.18471 19.88051,-14.12746 1.42667,-4.33799 1.33388,-8.61799 -1.32227,-11.18134 z"
       id="path840" />
    <path
       class="c"
       d="m 650.82991,295.3071 c 2.62135,1.10189 4.56997,0.75392 6.94774,0 2.05301,-0.60315 3.01571,-1.0671 4.11761,-0.60315 1.53105,0.63794 1.89062,2.25019 1.26428,3.73485 -0.83512,1.98341 -2.76054,3.50287 -5.2195,5.09192 -8.15403,5.32389 -19.057,8.62958 -30.43552,3.85083 -14.66101,-6.14742 -19.27737,-20.32127 -13.87228,-33.21925 9.4647,-22.55986 39.62184,-47.23072 55.73271,-85.65788 3.43328,-8.17722 2.47057,-13.24594 -2.34298,-15.26415 -1.97181,-0.82352 -2.64455,-2.27338 -1.82102,-4.25679 2.18059,-5.20791 18.30306,-8.06124 30.78348,-2.83014 11.37852,4.76715 16.78361,15.20616 11.5873,27.59379 -8.73397,20.83162 -47.55549,63.72435 -57.54214,87.5253 -3.53767,8.4324 -2.26179,12.75879 0.81192,14.03467 v 0 z"
       id="path842" />
    <g
       gcodetools="Preview group"
       id="g2078" />
    <g
       gcodetools="Preview group"
       id="g2080" />
    <g
       gcodetools="Preview group"
       id="g2082" />
    <g
       gcodetools="Preview group"
       id="g2084" />
    <g
       gcodetools="Preview group"
       id="g2086" />
    <g
       gcodetools="Preview group"
       id="g2088" />
    <g
       gcodetools="Preview group"
       id="g2090" />
    <g
       gcodetools="Preview group"
       id="g2092" />
    <g
       gcodetools="Preview group"
       id="g2094" />
    <g
       gcodetools="Preview group"
       id="g2096" />
    <g
       gcodetools="Preview group"
       id="g2098" />
    <g
       gcodetools="Preview group"
       id="g2100" />
    <g
       gcodetools="Preview group"
       id="g2102" />
    <g
       gcodetools="Preview group"
       id="g10128" />
    <g
       gcodetools="Preview group"
       id="g10130" />
    <g
       gcodetools="Preview group"
       id="g10132" />
    <g
       gcodetools="Preview group"
       id="g10134" />
    <g
       gcodetools="Preview group"
       id="g10136" />
    <g
       gcodetools="Preview group"
       id="g10138" />
    <g
       gcodetools="Preview group"
       id="g10140" />
    <g
       gcodetools="Preview group"
       id="g10142" />
    <g
       gcodetools="Preview group"
       id="g10144" />
    <g
       gcodetools="Preview group"
       id="g10146" />
    <g
       gcodetools="Preview group"
       id="g10148" />
    <g
       gcodetools="Preview group"
       id="g10150" />
    <g
       gcodetools="Preview group"
       id="g10152" />
    <g
       gcodetools="Preview group"
       id="g20445" />
    <g
       gcodetools="Preview group"
       id="g20447" />
    <g
       gcodetools="Preview group"
       id="g20449" />
    <g
       gcodetools="Preview group"
       id="g20451" />
    <g
       gcodetools="Preview group"
       id="g20453" />
    <g
       gcodetools="Preview group"
       id="g20455" />
    <g
       gcodetools="Preview group"
       id="g20457" />
    <g
       gcodetools="Preview group"
       id="g20459" />
    <g
       gcodetools="Preview group"
       id="g20461" />
    <g
       gcodetools="Preview group"
       id="g20463" />
    <g
       gcodetools="Preview group"
       id="g20465" />
    <g
       gcodetools="Preview group"
       id="g20467" />
    <g
       gcodetools="Preview group"
       id="g20469" />
    <g
       gcodetools="Preview group"
       id="g28462" />
    <g
       gcodetools="Preview group"
       id="g28464" />
    <g
       gcodetools="Preview group"
       id="g28466" />
    <g
       gcodetools="Preview group"
       id="g28468" />
    <g
       gcodetools="Preview group"
       id="g28470" />
    <g
       gcodetools="Preview group"
       id="g28472" />
    <g
       gcodetools="Preview group"
       id="g28474" />
    <g
       gcodetools="Preview group"
       id="g28476" />
    <g
       gcodetools="Preview group"
       id="g28478" />
    <g
       gcodetools="Preview group"
       id="g28480" />
    <g
       gcodetools="Preview group"
       id="g28482" />
    <g
       gcodetools="Preview group"
       id="g28484" />
    <g
       gcodetools="Preview group"
       id="g28486" />
  </g>
  <g
     id="g2105"
     transform="translate(-531.12075,-163.37672)" />
  <g
     id="g10156"
     transform="translate(-531.12075,-163.37672)" />
  <g
     id="g20474"
     transform="translate(-531.12075,-163.37672)" />
  <g
     id="g28492"
     transform="translate(-531.12075,-163.37672)" />
</svg>
